%TF.GenerationSoftware,KiCad,Pcbnew,5.1.10-88a1d61d58~90~ubuntu20.04.1*%
%TF.CreationDate,2021-10-12T23:05:44+03:00*%
%TF.ProjectId,Schematic,53636865-6d61-4746-9963-2e6b69636164,rev?*%
%TF.SameCoordinates,Original*%
%TF.FileFunction,Legend,Bot*%
%TF.FilePolarity,Positive*%
%FSLAX46Y46*%
G04 Gerber Fmt 4.6, Leading zero omitted, Abs format (unit mm)*
G04 Created by KiCad (PCBNEW 5.1.10-88a1d61d58~90~ubuntu20.04.1) date 2021-10-12 23:05:44*
%MOMM*%
%LPD*%
G01*
G04 APERTURE LIST*
%ADD10C,0.120000*%
%ADD11C,0.150000*%
%ADD12C,1.600000*%
%ADD13R,1.600000X1.600000*%
%ADD14R,3.000000X3.000000*%
%ADD15C,3.000000*%
%ADD16R,0.700000X0.600000*%
%ADD17R,1.000000X1.000000*%
%ADD18O,1.700000X1.700000*%
%ADD19R,1.700000X1.700000*%
%ADD20R,0.600000X0.700000*%
%ADD21R,0.400000X0.650000*%
%ADD22O,1.000000X1.000000*%
%ADD23R,0.800000X0.900000*%
%ADD24R,0.650000X0.400000*%
%ADD25C,1.500000*%
%ADD26C,1.800000*%
%ADD27O,3.600000X2.000000*%
%ADD28C,1.400000*%
%ADD29C,2.000000*%
%ADD30R,2.000000X2.000000*%
%ADD31R,2.700000X2.700000*%
G04 APERTURE END LIST*
D10*
X147801000Y-120272436D02*
X147801000Y-120726564D01*
X146331000Y-120272436D02*
X146331000Y-120726564D01*
X147312748Y-137187000D02*
X147835252Y-137187000D01*
X147312748Y-138657000D02*
X147835252Y-138657000D01*
X119168000Y-76384000D02*
X119168000Y-48944000D01*
X119168000Y-48944000D02*
X171808000Y-48944000D01*
X119168000Y-76384000D02*
X171808000Y-76384000D01*
X171808000Y-76384000D02*
X171808000Y-48944000D01*
X123688000Y-76714000D02*
X121688000Y-76714000D01*
X180940000Y-59062000D02*
X179740000Y-59062000D01*
X180940000Y-57212000D02*
X180940000Y-59062000D01*
X179740000Y-57212000D02*
X179740000Y-59062000D01*
X183480000Y-59062000D02*
X182280000Y-59062000D01*
X183480000Y-57212000D02*
X183480000Y-59062000D01*
X182280000Y-57212000D02*
X182280000Y-59062000D01*
X184720000Y-61406000D02*
X186120000Y-61406000D01*
X186120000Y-61406000D02*
X186120000Y-60006000D01*
X186120000Y-60006000D02*
X184720000Y-60006000D01*
X184720000Y-60006000D02*
X184720000Y-61406000D01*
X179640000Y-61406000D02*
X181040000Y-61406000D01*
X181040000Y-61406000D02*
X181040000Y-60006000D01*
X181040000Y-60006000D02*
X179640000Y-60006000D01*
X179640000Y-60006000D02*
X179640000Y-61406000D01*
X182180000Y-61406000D02*
X183580000Y-61406000D01*
X183580000Y-61406000D02*
X183580000Y-60006000D01*
X183580000Y-60006000D02*
X182180000Y-60006000D01*
X182180000Y-60006000D02*
X182180000Y-61406000D01*
X190050000Y-93818000D02*
X190050000Y-92618000D01*
X191900000Y-93818000D02*
X190050000Y-93818000D01*
X191900000Y-92618000D02*
X190050000Y-92618000D01*
X190050000Y-103978000D02*
X190050000Y-102778000D01*
X191900000Y-103978000D02*
X190050000Y-103978000D01*
X191900000Y-102778000D02*
X190050000Y-102778000D01*
X190112000Y-98898000D02*
X190112000Y-97698000D01*
X191962000Y-98898000D02*
X190112000Y-98898000D01*
X191962000Y-97698000D02*
X190112000Y-97698000D01*
X190112000Y-109058000D02*
X190112000Y-107858000D01*
X191962000Y-109058000D02*
X190112000Y-109058000D01*
X191962000Y-107858000D02*
X190112000Y-107858000D01*
X186800000Y-136844000D02*
X186800000Y-134944000D01*
X189120000Y-135444000D02*
X189120000Y-136844000D01*
X170596000Y-144392000D02*
X171796000Y-144392000D01*
X170596000Y-146242000D02*
X170596000Y-144392000D01*
X171796000Y-146242000D02*
X171796000Y-144392000D01*
X120872000Y-136270000D02*
X120872000Y-134370000D01*
X123192000Y-134870000D02*
X123192000Y-136270000D01*
X112684000Y-110610000D02*
X113884000Y-110610000D01*
X112684000Y-112460000D02*
X112684000Y-110610000D01*
X113884000Y-112460000D02*
X113884000Y-110610000D01*
X191922000Y-81632000D02*
X191922000Y-83382000D01*
X191922000Y-83382000D02*
X188922000Y-83382000D01*
X178902000Y-65462000D02*
X175902000Y-65462000D01*
X178902000Y-83382000D02*
X175902000Y-83382000D01*
X192752000Y-67212000D02*
X191922000Y-67212000D01*
X175902000Y-81632000D02*
X175902000Y-83382000D01*
X175902000Y-65462000D02*
X175902000Y-67212000D01*
X191922000Y-65462000D02*
X191922000Y-67212000D01*
X191922000Y-65462000D02*
X188922000Y-65462000D01*
X178027000Y-56414936D02*
X178027000Y-56869064D01*
X176557000Y-56414936D02*
X176557000Y-56869064D01*
X179097000Y-97890064D02*
X179097000Y-97435936D01*
X180567000Y-97890064D02*
X180567000Y-97435936D01*
X176938000Y-97890064D02*
X176938000Y-97435936D01*
X178408000Y-97890064D02*
X178408000Y-97435936D01*
X176249000Y-97412436D02*
X176249000Y-97866564D01*
X174779000Y-97412436D02*
X174779000Y-97866564D01*
X180567000Y-92633436D02*
X180567000Y-93087564D01*
X179097000Y-92633436D02*
X179097000Y-93087564D01*
X166106000Y-108440000D02*
X166106000Y-106980000D01*
X162946000Y-108440000D02*
X162946000Y-106280000D01*
X162946000Y-108440000D02*
X163876000Y-108440000D01*
X166106000Y-108440000D02*
X165176000Y-108440000D01*
X125160000Y-121048000D02*
X123760000Y-121048000D01*
X123760000Y-118728000D02*
X125660000Y-118728000D01*
X174571252Y-55599000D02*
X174048748Y-55599000D01*
X174571252Y-54129000D02*
X174048748Y-54129000D01*
X174505252Y-61441000D02*
X173982748Y-61441000D01*
X174505252Y-59971000D02*
X173982748Y-59971000D01*
X159946000Y-117602000D02*
X159946000Y-121462000D01*
X159946000Y-121462000D02*
X159691000Y-121462000D01*
X159946000Y-117602000D02*
X159946000Y-113742000D01*
X159946000Y-113742000D02*
X159691000Y-113742000D01*
X149426000Y-117602000D02*
X149426000Y-121462000D01*
X149426000Y-121462000D02*
X149681000Y-121462000D01*
X149426000Y-117602000D02*
X149426000Y-113742000D01*
X149426000Y-113742000D02*
X149681000Y-113742000D01*
X149681000Y-113742000D02*
X149681000Y-111927000D01*
X182345000Y-111375564D02*
X182345000Y-110921436D01*
X180875000Y-111375564D02*
X180875000Y-110921436D01*
X184885000Y-111375564D02*
X184885000Y-110921436D01*
X183415000Y-111375564D02*
X183415000Y-110921436D01*
X164715564Y-110517000D02*
X164261436Y-110517000D01*
X164715564Y-111987000D02*
X164261436Y-111987000D01*
X115797000Y-112495064D02*
X115797000Y-112040936D01*
X114327000Y-112495064D02*
X114327000Y-112040936D01*
X164261436Y-114527000D02*
X164715564Y-114527000D01*
X164261436Y-113057000D02*
X164715564Y-113057000D01*
X182495564Y-128551000D02*
X182041436Y-128551000D01*
X182495564Y-130021000D02*
X182041436Y-130021000D01*
X182495564Y-124995000D02*
X182041436Y-124995000D01*
X182495564Y-126465000D02*
X182041436Y-126465000D01*
X182495564Y-121439000D02*
X182041436Y-121439000D01*
X182495564Y-122909000D02*
X182041436Y-122909000D01*
X183565436Y-91413000D02*
X184019564Y-91413000D01*
X183565436Y-89943000D02*
X184019564Y-89943000D01*
X183518436Y-101573000D02*
X183972564Y-101573000D01*
X183518436Y-100103000D02*
X183972564Y-100103000D01*
X124209436Y-117829000D02*
X124663564Y-117829000D01*
X124209436Y-116359000D02*
X124663564Y-116359000D01*
X124687064Y-121947000D02*
X124232936Y-121947000D01*
X124687064Y-123417000D02*
X124232936Y-123417000D01*
X124663564Y-123979000D02*
X124209436Y-123979000D01*
X124663564Y-125449000D02*
X124209436Y-125449000D01*
X175794936Y-130021000D02*
X176249064Y-130021000D01*
X175794936Y-128551000D02*
X176249064Y-128551000D01*
X175794936Y-126465000D02*
X176249064Y-126465000D01*
X175794936Y-124995000D02*
X176249064Y-124995000D01*
X175794936Y-122909000D02*
X176249064Y-122909000D01*
X175794936Y-121439000D02*
X176249064Y-121439000D01*
X183565436Y-96493000D02*
X184019564Y-96493000D01*
X183565436Y-95023000D02*
X184019564Y-95023000D01*
X183518436Y-106653000D02*
X183972564Y-106653000D01*
X183518436Y-105183000D02*
X183972564Y-105183000D01*
X152269564Y-139219000D02*
X151815436Y-139219000D01*
X152269564Y-140689000D02*
X151815436Y-140689000D01*
X151815436Y-138657000D02*
X152269564Y-138657000D01*
X151815436Y-137187000D02*
X152269564Y-137187000D01*
X111738000Y-61720000D02*
X111738000Y-50020000D01*
X115838000Y-50020000D02*
X111738000Y-50020000D01*
X115838000Y-61720000D02*
X111738000Y-61720000D01*
X115838000Y-61720000D02*
X115838000Y-50020000D01*
X152407252Y-135155000D02*
X151884748Y-135155000D01*
X152407252Y-136625000D02*
X151884748Y-136625000D01*
X152407252Y-133123000D02*
X151884748Y-133123000D01*
X152407252Y-134593000D02*
X151884748Y-134593000D01*
X157914748Y-90143000D02*
X158437252Y-90143000D01*
X157914748Y-88673000D02*
X158437252Y-88673000D01*
X115289000Y-125229252D02*
X115289000Y-124706748D01*
X113819000Y-125229252D02*
X113819000Y-124706748D01*
X191950748Y-120877000D02*
X192473252Y-120877000D01*
X191950748Y-119407000D02*
X192473252Y-119407000D01*
X163100000Y-102860000D02*
G75*
G03*
X163100000Y-102860000I-6100000J0D01*
G01*
D11*
X145868380Y-119856642D02*
X145392190Y-119523309D01*
X145868380Y-119285214D02*
X144868380Y-119285214D01*
X144868380Y-119666166D01*
X144916000Y-119761404D01*
X144963619Y-119809023D01*
X145058857Y-119856642D01*
X145201714Y-119856642D01*
X145296952Y-119809023D01*
X145344571Y-119761404D01*
X145392190Y-119666166D01*
X145392190Y-119285214D01*
X144963619Y-120237595D02*
X144916000Y-120285214D01*
X144868380Y-120380452D01*
X144868380Y-120618547D01*
X144916000Y-120713785D01*
X144963619Y-120761404D01*
X145058857Y-120809023D01*
X145154095Y-120809023D01*
X145296952Y-120761404D01*
X145868380Y-120189976D01*
X145868380Y-120809023D01*
X144868380Y-121142357D02*
X144868380Y-121809023D01*
X145868380Y-121380452D01*
X144692666Y-138279142D02*
X144740285Y-138326761D01*
X144883142Y-138374380D01*
X144978380Y-138374380D01*
X145121238Y-138326761D01*
X145216476Y-138231523D01*
X145264095Y-138136285D01*
X145311714Y-137945809D01*
X145311714Y-137802952D01*
X145264095Y-137612476D01*
X145216476Y-137517238D01*
X145121238Y-137422000D01*
X144978380Y-137374380D01*
X144883142Y-137374380D01*
X144740285Y-137422000D01*
X144692666Y-137469619D01*
X144121238Y-137802952D02*
X144216476Y-137755333D01*
X144264095Y-137707714D01*
X144311714Y-137612476D01*
X144311714Y-137564857D01*
X144264095Y-137469619D01*
X144216476Y-137422000D01*
X144121238Y-137374380D01*
X143930761Y-137374380D01*
X143835523Y-137422000D01*
X143787904Y-137469619D01*
X143740285Y-137564857D01*
X143740285Y-137612476D01*
X143787904Y-137707714D01*
X143835523Y-137755333D01*
X143930761Y-137802952D01*
X144121238Y-137802952D01*
X144216476Y-137850571D01*
X144264095Y-137898190D01*
X144311714Y-137993428D01*
X144311714Y-138183904D01*
X144264095Y-138279142D01*
X144216476Y-138326761D01*
X144121238Y-138374380D01*
X143930761Y-138374380D01*
X143835523Y-138326761D01*
X143787904Y-138279142D01*
X143740285Y-138183904D01*
X143740285Y-137993428D01*
X143787904Y-137898190D01*
X143835523Y-137850571D01*
X143930761Y-137802952D01*
X146402285Y-77922380D02*
X146402285Y-76922380D01*
X146021333Y-76922380D01*
X145926095Y-76970000D01*
X145878476Y-77017619D01*
X145830857Y-77112857D01*
X145830857Y-77255714D01*
X145878476Y-77350952D01*
X145926095Y-77398571D01*
X146021333Y-77446190D01*
X146402285Y-77446190D01*
X145449904Y-77874761D02*
X145307047Y-77922380D01*
X145068952Y-77922380D01*
X144973714Y-77874761D01*
X144926095Y-77827142D01*
X144878476Y-77731904D01*
X144878476Y-77636666D01*
X144926095Y-77541428D01*
X144973714Y-77493809D01*
X145068952Y-77446190D01*
X145259428Y-77398571D01*
X145354666Y-77350952D01*
X145402285Y-77303333D01*
X145449904Y-77208095D01*
X145449904Y-77112857D01*
X145402285Y-77017619D01*
X145354666Y-76970000D01*
X145259428Y-76922380D01*
X145021333Y-76922380D01*
X144878476Y-76970000D01*
X143926095Y-77922380D02*
X144497523Y-77922380D01*
X144211809Y-77922380D02*
X144211809Y-76922380D01*
X144307047Y-77065238D01*
X144402285Y-77160476D01*
X144497523Y-77208095D01*
X180792380Y-53903714D02*
X179792380Y-53903714D01*
X179792380Y-54141809D01*
X179840000Y-54284666D01*
X179935238Y-54379904D01*
X180030476Y-54427523D01*
X180220952Y-54475142D01*
X180363809Y-54475142D01*
X180554285Y-54427523D01*
X180649523Y-54379904D01*
X180744761Y-54284666D01*
X180792380Y-54141809D01*
X180792380Y-53903714D01*
X179887619Y-54856095D02*
X179840000Y-54903714D01*
X179792380Y-54998952D01*
X179792380Y-55237047D01*
X179840000Y-55332285D01*
X179887619Y-55379904D01*
X179982857Y-55427523D01*
X180078095Y-55427523D01*
X180220952Y-55379904D01*
X180792380Y-54808476D01*
X180792380Y-55427523D01*
X180125714Y-56284666D02*
X180792380Y-56284666D01*
X179744761Y-56046571D02*
X180459047Y-55808476D01*
X180459047Y-56427523D01*
X183332380Y-53903714D02*
X182332380Y-53903714D01*
X182332380Y-54141809D01*
X182380000Y-54284666D01*
X182475238Y-54379904D01*
X182570476Y-54427523D01*
X182760952Y-54475142D01*
X182903809Y-54475142D01*
X183094285Y-54427523D01*
X183189523Y-54379904D01*
X183284761Y-54284666D01*
X183332380Y-54141809D01*
X183332380Y-53903714D01*
X183332380Y-55427523D02*
X183332380Y-54856095D01*
X183332380Y-55141809D02*
X182332380Y-55141809D01*
X182475238Y-55046571D01*
X182570476Y-54951333D01*
X182618095Y-54856095D01*
X182665714Y-56284666D02*
X183332380Y-56284666D01*
X182284761Y-56046571D02*
X182999047Y-55808476D01*
X182999047Y-56427523D01*
X186681904Y-61606380D02*
X186110476Y-61606380D01*
X186396190Y-62606380D02*
X186396190Y-61606380D01*
X185777142Y-62606380D02*
X185777142Y-61606380D01*
X185396190Y-61606380D01*
X185300952Y-61654000D01*
X185253333Y-61701619D01*
X185205714Y-61796857D01*
X185205714Y-61939714D01*
X185253333Y-62034952D01*
X185300952Y-62082571D01*
X185396190Y-62130190D01*
X185777142Y-62130190D01*
X184872380Y-61606380D02*
X184205714Y-61606380D01*
X184634285Y-62606380D01*
X181601904Y-61606380D02*
X181030476Y-61606380D01*
X181316190Y-62606380D02*
X181316190Y-61606380D01*
X180697142Y-62606380D02*
X180697142Y-61606380D01*
X180316190Y-61606380D01*
X180220952Y-61654000D01*
X180173333Y-61701619D01*
X180125714Y-61796857D01*
X180125714Y-61939714D01*
X180173333Y-62034952D01*
X180220952Y-62082571D01*
X180316190Y-62130190D01*
X180697142Y-62130190D01*
X179268571Y-61606380D02*
X179459047Y-61606380D01*
X179554285Y-61654000D01*
X179601904Y-61701619D01*
X179697142Y-61844476D01*
X179744761Y-62034952D01*
X179744761Y-62415904D01*
X179697142Y-62511142D01*
X179649523Y-62558761D01*
X179554285Y-62606380D01*
X179363809Y-62606380D01*
X179268571Y-62558761D01*
X179220952Y-62511142D01*
X179173333Y-62415904D01*
X179173333Y-62177809D01*
X179220952Y-62082571D01*
X179268571Y-62034952D01*
X179363809Y-61987333D01*
X179554285Y-61987333D01*
X179649523Y-62034952D01*
X179697142Y-62082571D01*
X179744761Y-62177809D01*
X184141904Y-61606380D02*
X183570476Y-61606380D01*
X183856190Y-62606380D02*
X183856190Y-61606380D01*
X183237142Y-62606380D02*
X183237142Y-61606380D01*
X182856190Y-61606380D01*
X182760952Y-61654000D01*
X182713333Y-61701619D01*
X182665714Y-61796857D01*
X182665714Y-61939714D01*
X182713333Y-62034952D01*
X182760952Y-62082571D01*
X182856190Y-62130190D01*
X183237142Y-62130190D01*
X181760952Y-61606380D02*
X182237142Y-61606380D01*
X182284761Y-62082571D01*
X182237142Y-62034952D01*
X182141904Y-61987333D01*
X181903809Y-61987333D01*
X181808571Y-62034952D01*
X181760952Y-62082571D01*
X181713333Y-62177809D01*
X181713333Y-62415904D01*
X181760952Y-62511142D01*
X181808571Y-62558761D01*
X181903809Y-62606380D01*
X182141904Y-62606380D01*
X182237142Y-62558761D01*
X182284761Y-62511142D01*
X189620285Y-93670380D02*
X189620285Y-92670380D01*
X189382190Y-92670380D01*
X189239333Y-92718000D01*
X189144095Y-92813238D01*
X189096476Y-92908476D01*
X189048857Y-93098952D01*
X189048857Y-93241809D01*
X189096476Y-93432285D01*
X189144095Y-93527523D01*
X189239333Y-93622761D01*
X189382190Y-93670380D01*
X189620285Y-93670380D01*
X188667904Y-92765619D02*
X188620285Y-92718000D01*
X188525047Y-92670380D01*
X188286952Y-92670380D01*
X188191714Y-92718000D01*
X188144095Y-92765619D01*
X188096476Y-92860857D01*
X188096476Y-92956095D01*
X188144095Y-93098952D01*
X188715523Y-93670380D01*
X188096476Y-93670380D01*
X187715523Y-92765619D02*
X187667904Y-92718000D01*
X187572666Y-92670380D01*
X187334571Y-92670380D01*
X187239333Y-92718000D01*
X187191714Y-92765619D01*
X187144095Y-92860857D01*
X187144095Y-92956095D01*
X187191714Y-93098952D01*
X187763142Y-93670380D01*
X187144095Y-93670380D01*
X189366285Y-103830380D02*
X189366285Y-102830380D01*
X189128190Y-102830380D01*
X188985333Y-102878000D01*
X188890095Y-102973238D01*
X188842476Y-103068476D01*
X188794857Y-103258952D01*
X188794857Y-103401809D01*
X188842476Y-103592285D01*
X188890095Y-103687523D01*
X188985333Y-103782761D01*
X189128190Y-103830380D01*
X189366285Y-103830380D01*
X188413904Y-102925619D02*
X188366285Y-102878000D01*
X188271047Y-102830380D01*
X188032952Y-102830380D01*
X187937714Y-102878000D01*
X187890095Y-102925619D01*
X187842476Y-103020857D01*
X187842476Y-103116095D01*
X187890095Y-103258952D01*
X188461523Y-103830380D01*
X187842476Y-103830380D01*
X186890095Y-103830380D02*
X187461523Y-103830380D01*
X187175809Y-103830380D02*
X187175809Y-102830380D01*
X187271047Y-102973238D01*
X187366285Y-103068476D01*
X187461523Y-103116095D01*
X189682285Y-98750380D02*
X189682285Y-97750380D01*
X189444190Y-97750380D01*
X189301333Y-97798000D01*
X189206095Y-97893238D01*
X189158476Y-97988476D01*
X189110857Y-98178952D01*
X189110857Y-98321809D01*
X189158476Y-98512285D01*
X189206095Y-98607523D01*
X189301333Y-98702761D01*
X189444190Y-98750380D01*
X189682285Y-98750380D01*
X188729904Y-97845619D02*
X188682285Y-97798000D01*
X188587047Y-97750380D01*
X188348952Y-97750380D01*
X188253714Y-97798000D01*
X188206095Y-97845619D01*
X188158476Y-97940857D01*
X188158476Y-98036095D01*
X188206095Y-98178952D01*
X188777523Y-98750380D01*
X188158476Y-98750380D01*
X187539428Y-97750380D02*
X187444190Y-97750380D01*
X187348952Y-97798000D01*
X187301333Y-97845619D01*
X187253714Y-97940857D01*
X187206095Y-98131333D01*
X187206095Y-98369428D01*
X187253714Y-98559904D01*
X187301333Y-98655142D01*
X187348952Y-98702761D01*
X187444190Y-98750380D01*
X187539428Y-98750380D01*
X187634666Y-98702761D01*
X187682285Y-98655142D01*
X187729904Y-98559904D01*
X187777523Y-98369428D01*
X187777523Y-98131333D01*
X187729904Y-97940857D01*
X187682285Y-97845619D01*
X187634666Y-97798000D01*
X187539428Y-97750380D01*
X189174285Y-108910380D02*
X189174285Y-107910380D01*
X188936190Y-107910380D01*
X188793333Y-107958000D01*
X188698095Y-108053238D01*
X188650476Y-108148476D01*
X188602857Y-108338952D01*
X188602857Y-108481809D01*
X188650476Y-108672285D01*
X188698095Y-108767523D01*
X188793333Y-108862761D01*
X188936190Y-108910380D01*
X189174285Y-108910380D01*
X187650476Y-108910380D02*
X188221904Y-108910380D01*
X187936190Y-108910380D02*
X187936190Y-107910380D01*
X188031428Y-108053238D01*
X188126666Y-108148476D01*
X188221904Y-108196095D01*
X186698095Y-108910380D02*
X187269523Y-108910380D01*
X186983809Y-108910380D02*
X186983809Y-107910380D01*
X187079047Y-108053238D01*
X187174285Y-108148476D01*
X187269523Y-108196095D01*
X188920285Y-134310380D02*
X188920285Y-133310380D01*
X188682190Y-133310380D01*
X188539333Y-133358000D01*
X188444095Y-133453238D01*
X188396476Y-133548476D01*
X188348857Y-133738952D01*
X188348857Y-133881809D01*
X188396476Y-134072285D01*
X188444095Y-134167523D01*
X188539333Y-134262761D01*
X188682190Y-134310380D01*
X188920285Y-134310380D01*
X187396476Y-134310380D02*
X187967904Y-134310380D01*
X187682190Y-134310380D02*
X187682190Y-133310380D01*
X187777428Y-133453238D01*
X187872666Y-133548476D01*
X187967904Y-133596095D01*
X186920285Y-134310380D02*
X186729809Y-134310380D01*
X186634571Y-134262761D01*
X186586952Y-134215142D01*
X186491714Y-134072285D01*
X186444095Y-133881809D01*
X186444095Y-133500857D01*
X186491714Y-133405619D01*
X186539333Y-133358000D01*
X186634571Y-133310380D01*
X186825047Y-133310380D01*
X186920285Y-133358000D01*
X186967904Y-133405619D01*
X187015523Y-133500857D01*
X187015523Y-133738952D01*
X186967904Y-133834190D01*
X186920285Y-133881809D01*
X186825047Y-133929428D01*
X186634571Y-133929428D01*
X186539333Y-133881809D01*
X186491714Y-133834190D01*
X186444095Y-133738952D01*
X170348380Y-144327714D02*
X169348380Y-144327714D01*
X169348380Y-144565809D01*
X169396000Y-144708666D01*
X169491238Y-144803904D01*
X169586476Y-144851523D01*
X169776952Y-144899142D01*
X169919809Y-144899142D01*
X170110285Y-144851523D01*
X170205523Y-144803904D01*
X170300761Y-144708666D01*
X170348380Y-144565809D01*
X170348380Y-144327714D01*
X170348380Y-145851523D02*
X170348380Y-145280095D01*
X170348380Y-145565809D02*
X169348380Y-145565809D01*
X169491238Y-145470571D01*
X169586476Y-145375333D01*
X169634095Y-145280095D01*
X169776952Y-146422952D02*
X169729333Y-146327714D01*
X169681714Y-146280095D01*
X169586476Y-146232476D01*
X169538857Y-146232476D01*
X169443619Y-146280095D01*
X169396000Y-146327714D01*
X169348380Y-146422952D01*
X169348380Y-146613428D01*
X169396000Y-146708666D01*
X169443619Y-146756285D01*
X169538857Y-146803904D01*
X169586476Y-146803904D01*
X169681714Y-146756285D01*
X169729333Y-146708666D01*
X169776952Y-146613428D01*
X169776952Y-146422952D01*
X169824571Y-146327714D01*
X169872190Y-146280095D01*
X169967428Y-146232476D01*
X170157904Y-146232476D01*
X170253142Y-146280095D01*
X170300761Y-146327714D01*
X170348380Y-146422952D01*
X170348380Y-146613428D01*
X170300761Y-146708666D01*
X170253142Y-146756285D01*
X170157904Y-146803904D01*
X169967428Y-146803904D01*
X169872190Y-146756285D01*
X169824571Y-146708666D01*
X169776952Y-146613428D01*
X123388285Y-133548380D02*
X123388285Y-132548380D01*
X123150190Y-132548380D01*
X123007333Y-132596000D01*
X122912095Y-132691238D01*
X122864476Y-132786476D01*
X122816857Y-132976952D01*
X122816857Y-133119809D01*
X122864476Y-133310285D01*
X122912095Y-133405523D01*
X123007333Y-133500761D01*
X123150190Y-133548380D01*
X123388285Y-133548380D01*
X121864476Y-133548380D02*
X122435904Y-133548380D01*
X122150190Y-133548380D02*
X122150190Y-132548380D01*
X122245428Y-132691238D01*
X122340666Y-132786476D01*
X122435904Y-132834095D01*
X121007333Y-132548380D02*
X121197809Y-132548380D01*
X121293047Y-132596000D01*
X121340666Y-132643619D01*
X121435904Y-132786476D01*
X121483523Y-132976952D01*
X121483523Y-133357904D01*
X121435904Y-133453142D01*
X121388285Y-133500761D01*
X121293047Y-133548380D01*
X121102571Y-133548380D01*
X121007333Y-133500761D01*
X120959714Y-133453142D01*
X120912095Y-133357904D01*
X120912095Y-133119809D01*
X120959714Y-133024571D01*
X121007333Y-132976952D01*
X121102571Y-132929333D01*
X121293047Y-132929333D01*
X121388285Y-132976952D01*
X121435904Y-133024571D01*
X121483523Y-133119809D01*
X112436380Y-110545714D02*
X111436380Y-110545714D01*
X111436380Y-110783809D01*
X111484000Y-110926666D01*
X111579238Y-111021904D01*
X111674476Y-111069523D01*
X111864952Y-111117142D01*
X112007809Y-111117142D01*
X112198285Y-111069523D01*
X112293523Y-111021904D01*
X112388761Y-110926666D01*
X112436380Y-110783809D01*
X112436380Y-110545714D01*
X112436380Y-112069523D02*
X112436380Y-111498095D01*
X112436380Y-111783809D02*
X111436380Y-111783809D01*
X111579238Y-111688571D01*
X111674476Y-111593333D01*
X111722095Y-111498095D01*
X111436380Y-112974285D02*
X111436380Y-112498095D01*
X111912571Y-112450476D01*
X111864952Y-112498095D01*
X111817333Y-112593333D01*
X111817333Y-112831428D01*
X111864952Y-112926666D01*
X111912571Y-112974285D01*
X112007809Y-113021904D01*
X112245904Y-113021904D01*
X112341142Y-112974285D01*
X112388761Y-112926666D01*
X112436380Y-112831428D01*
X112436380Y-112593333D01*
X112388761Y-112498095D01*
X112341142Y-112450476D01*
X191769904Y-83780380D02*
X191769904Y-84589904D01*
X191722285Y-84685142D01*
X191674666Y-84732761D01*
X191579428Y-84780380D01*
X191388952Y-84780380D01*
X191293714Y-84732761D01*
X191246095Y-84685142D01*
X191198476Y-84589904D01*
X191198476Y-83780380D01*
X190817523Y-83780380D02*
X190150857Y-83780380D01*
X190579428Y-84780380D01*
X177744380Y-52697142D02*
X177268190Y-52363809D01*
X177744380Y-52125714D02*
X176744380Y-52125714D01*
X176744380Y-52506666D01*
X176792000Y-52601904D01*
X176839619Y-52649523D01*
X176934857Y-52697142D01*
X177077714Y-52697142D01*
X177172952Y-52649523D01*
X177220571Y-52601904D01*
X177268190Y-52506666D01*
X177268190Y-52125714D01*
X176744380Y-53601904D02*
X176744380Y-53125714D01*
X177220571Y-53078095D01*
X177172952Y-53125714D01*
X177125333Y-53220952D01*
X177125333Y-53459047D01*
X177172952Y-53554285D01*
X177220571Y-53601904D01*
X177315809Y-53649523D01*
X177553904Y-53649523D01*
X177649142Y-53601904D01*
X177696761Y-53554285D01*
X177744380Y-53459047D01*
X177744380Y-53220952D01*
X177696761Y-53125714D01*
X177649142Y-53078095D01*
X176744380Y-53982857D02*
X176744380Y-54649523D01*
X177744380Y-54220952D01*
X180296381Y-100162143D02*
X179820191Y-99828810D01*
X180296381Y-99590715D02*
X179296381Y-99590715D01*
X179296381Y-99971667D01*
X179344001Y-100066905D01*
X179391620Y-100114524D01*
X179486858Y-100162143D01*
X179629715Y-100162143D01*
X179724953Y-100114524D01*
X179772572Y-100066905D01*
X179820191Y-99971667D01*
X179820191Y-99590715D01*
X179296381Y-101066905D02*
X179296381Y-100590715D01*
X179772572Y-100543096D01*
X179724953Y-100590715D01*
X179677334Y-100685953D01*
X179677334Y-100924048D01*
X179724953Y-101019286D01*
X179772572Y-101066905D01*
X179867810Y-101114524D01*
X180105905Y-101114524D01*
X180201143Y-101066905D01*
X180248762Y-101019286D01*
X180296381Y-100924048D01*
X180296381Y-100685953D01*
X180248762Y-100590715D01*
X180201143Y-100543096D01*
X179296381Y-101971667D02*
X179296381Y-101781191D01*
X179344001Y-101685953D01*
X179391620Y-101638334D01*
X179534477Y-101543096D01*
X179724953Y-101495477D01*
X180105905Y-101495477D01*
X180201143Y-101543096D01*
X180248762Y-101590715D01*
X180296381Y-101685953D01*
X180296381Y-101876429D01*
X180248762Y-101971667D01*
X180201143Y-102019286D01*
X180105905Y-102066905D01*
X179867810Y-102066905D01*
X179772572Y-102019286D01*
X179724953Y-101971667D01*
X179677334Y-101876429D01*
X179677334Y-101685953D01*
X179724953Y-101590715D01*
X179772572Y-101543096D01*
X179867810Y-101495477D01*
X178108381Y-100162143D02*
X177632191Y-99828810D01*
X178108381Y-99590715D02*
X177108381Y-99590715D01*
X177108381Y-99971667D01*
X177156001Y-100066905D01*
X177203620Y-100114524D01*
X177298858Y-100162143D01*
X177441715Y-100162143D01*
X177536953Y-100114524D01*
X177584572Y-100066905D01*
X177632191Y-99971667D01*
X177632191Y-99590715D01*
X177108381Y-101066905D02*
X177108381Y-100590715D01*
X177584572Y-100543096D01*
X177536953Y-100590715D01*
X177489334Y-100685953D01*
X177489334Y-100924048D01*
X177536953Y-101019286D01*
X177584572Y-101066905D01*
X177679810Y-101114524D01*
X177917905Y-101114524D01*
X178013143Y-101066905D01*
X178060762Y-101019286D01*
X178108381Y-100924048D01*
X178108381Y-100685953D01*
X178060762Y-100590715D01*
X178013143Y-100543096D01*
X177108381Y-102019286D02*
X177108381Y-101543096D01*
X177584572Y-101495477D01*
X177536953Y-101543096D01*
X177489334Y-101638334D01*
X177489334Y-101876429D01*
X177536953Y-101971667D01*
X177584572Y-102019286D01*
X177679810Y-102066905D01*
X177917905Y-102066905D01*
X178013143Y-102019286D01*
X178060762Y-101971667D01*
X178108381Y-101876429D01*
X178108381Y-101638334D01*
X178060762Y-101543096D01*
X178013143Y-101495477D01*
X176093380Y-100171642D02*
X175617190Y-99838309D01*
X176093380Y-99600214D02*
X175093380Y-99600214D01*
X175093380Y-99981166D01*
X175141000Y-100076404D01*
X175188619Y-100124023D01*
X175283857Y-100171642D01*
X175426714Y-100171642D01*
X175521952Y-100124023D01*
X175569571Y-100076404D01*
X175617190Y-99981166D01*
X175617190Y-99600214D01*
X175426714Y-101028785D02*
X176093380Y-101028785D01*
X175045761Y-100790690D02*
X175760047Y-100552595D01*
X175760047Y-101171642D01*
X175521952Y-101695452D02*
X175474333Y-101600214D01*
X175426714Y-101552595D01*
X175331476Y-101504976D01*
X175283857Y-101504976D01*
X175188619Y-101552595D01*
X175141000Y-101600214D01*
X175093380Y-101695452D01*
X175093380Y-101885928D01*
X175141000Y-101981166D01*
X175188619Y-102028785D01*
X175283857Y-102076404D01*
X175331476Y-102076404D01*
X175426714Y-102028785D01*
X175474333Y-101981166D01*
X175521952Y-101885928D01*
X175521952Y-101695452D01*
X175569571Y-101600214D01*
X175617190Y-101552595D01*
X175712428Y-101504976D01*
X175902904Y-101504976D01*
X175998142Y-101552595D01*
X176045761Y-101600214D01*
X176093380Y-101695452D01*
X176093380Y-101885928D01*
X176045761Y-101981166D01*
X175998142Y-102028785D01*
X175902904Y-102076404D01*
X175712428Y-102076404D01*
X175617190Y-102028785D01*
X175569571Y-101981166D01*
X175521952Y-101885928D01*
X180538380Y-88915642D02*
X180062190Y-88582309D01*
X180538380Y-88344214D02*
X179538380Y-88344214D01*
X179538380Y-88725166D01*
X179586000Y-88820404D01*
X179633619Y-88868023D01*
X179728857Y-88915642D01*
X179871714Y-88915642D01*
X179966952Y-88868023D01*
X180014571Y-88820404D01*
X180062190Y-88725166D01*
X180062190Y-88344214D01*
X179538380Y-89248976D02*
X179538380Y-89868023D01*
X179919333Y-89534690D01*
X179919333Y-89677547D01*
X179966952Y-89772785D01*
X180014571Y-89820404D01*
X180109809Y-89868023D01*
X180347904Y-89868023D01*
X180443142Y-89820404D01*
X180490761Y-89772785D01*
X180538380Y-89677547D01*
X180538380Y-89391833D01*
X180490761Y-89296595D01*
X180443142Y-89248976D01*
X179538380Y-90201357D02*
X179538380Y-90868023D01*
X180538380Y-90439452D01*
X167481238Y-108243619D02*
X167576476Y-108196000D01*
X167671714Y-108100761D01*
X167814571Y-107957904D01*
X167909809Y-107910285D01*
X168005047Y-107910285D01*
X167957428Y-108148380D02*
X168052666Y-108100761D01*
X168147904Y-108005523D01*
X168195523Y-107815047D01*
X168195523Y-107481714D01*
X168147904Y-107291238D01*
X168052666Y-107196000D01*
X167957428Y-107148380D01*
X167766952Y-107148380D01*
X167671714Y-107196000D01*
X167576476Y-107291238D01*
X167528857Y-107481714D01*
X167528857Y-107815047D01*
X167576476Y-108005523D01*
X167671714Y-108100761D01*
X167766952Y-108148380D01*
X167957428Y-108148380D01*
X166576476Y-108148380D02*
X167147904Y-108148380D01*
X166862190Y-108148380D02*
X166862190Y-107148380D01*
X166957428Y-107291238D01*
X167052666Y-107386476D01*
X167147904Y-107434095D01*
X122118285Y-120340380D02*
X122118285Y-119340380D01*
X121880190Y-119340380D01*
X121737333Y-119388000D01*
X121642095Y-119483238D01*
X121594476Y-119578476D01*
X121546857Y-119768952D01*
X121546857Y-119911809D01*
X121594476Y-120102285D01*
X121642095Y-120197523D01*
X121737333Y-120292761D01*
X121880190Y-120340380D01*
X122118285Y-120340380D01*
X120594476Y-120340380D02*
X121165904Y-120340380D01*
X120880190Y-120340380D02*
X120880190Y-119340380D01*
X120975428Y-119483238D01*
X121070666Y-119578476D01*
X121165904Y-119626095D01*
X120213523Y-119435619D02*
X120165904Y-119388000D01*
X120070666Y-119340380D01*
X119832571Y-119340380D01*
X119737333Y-119388000D01*
X119689714Y-119435619D01*
X119642095Y-119530857D01*
X119642095Y-119626095D01*
X119689714Y-119768952D01*
X120261142Y-120340380D01*
X119642095Y-120340380D01*
X174632857Y-53541142D02*
X174680476Y-53588761D01*
X174823333Y-53636380D01*
X174918571Y-53636380D01*
X175061428Y-53588761D01*
X175156666Y-53493523D01*
X175204285Y-53398285D01*
X175251904Y-53207809D01*
X175251904Y-53064952D01*
X175204285Y-52874476D01*
X175156666Y-52779238D01*
X175061428Y-52684000D01*
X174918571Y-52636380D01*
X174823333Y-52636380D01*
X174680476Y-52684000D01*
X174632857Y-52731619D01*
X174251904Y-52731619D02*
X174204285Y-52684000D01*
X174109047Y-52636380D01*
X173870952Y-52636380D01*
X173775714Y-52684000D01*
X173728095Y-52731619D01*
X173680476Y-52826857D01*
X173680476Y-52922095D01*
X173728095Y-53064952D01*
X174299523Y-53636380D01*
X173680476Y-53636380D01*
X172775714Y-52636380D02*
X173251904Y-52636380D01*
X173299523Y-53112571D01*
X173251904Y-53064952D01*
X173156666Y-53017333D01*
X172918571Y-53017333D01*
X172823333Y-53064952D01*
X172775714Y-53112571D01*
X172728095Y-53207809D01*
X172728095Y-53445904D01*
X172775714Y-53541142D01*
X172823333Y-53588761D01*
X172918571Y-53636380D01*
X173156666Y-53636380D01*
X173251904Y-53588761D01*
X173299523Y-53541142D01*
X174886857Y-59285142D02*
X174934476Y-59332761D01*
X175077333Y-59380380D01*
X175172571Y-59380380D01*
X175315428Y-59332761D01*
X175410666Y-59237523D01*
X175458285Y-59142285D01*
X175505904Y-58951809D01*
X175505904Y-58808952D01*
X175458285Y-58618476D01*
X175410666Y-58523238D01*
X175315428Y-58428000D01*
X175172571Y-58380380D01*
X175077333Y-58380380D01*
X174934476Y-58428000D01*
X174886857Y-58475619D01*
X174505904Y-58475619D02*
X174458285Y-58428000D01*
X174363047Y-58380380D01*
X174124952Y-58380380D01*
X174029714Y-58428000D01*
X173982095Y-58475619D01*
X173934476Y-58570857D01*
X173934476Y-58666095D01*
X173982095Y-58808952D01*
X174553523Y-59380380D01*
X173934476Y-59380380D01*
X173077333Y-58713714D02*
X173077333Y-59380380D01*
X173315428Y-58332761D02*
X173553523Y-59047047D01*
X172934476Y-59047047D01*
X148038380Y-116840095D02*
X148847904Y-116840095D01*
X148943142Y-116887714D01*
X148990761Y-116935333D01*
X149038380Y-117030571D01*
X149038380Y-117221047D01*
X148990761Y-117316285D01*
X148943142Y-117363904D01*
X148847904Y-117411523D01*
X148038380Y-117411523D01*
X148038380Y-117792476D02*
X148038380Y-118411523D01*
X148419333Y-118078190D01*
X148419333Y-118221047D01*
X148466952Y-118316285D01*
X148514571Y-118363904D01*
X148609809Y-118411523D01*
X148847904Y-118411523D01*
X148943142Y-118363904D01*
X148990761Y-118316285D01*
X149038380Y-118221047D01*
X149038380Y-117935333D01*
X148990761Y-117840095D01*
X148943142Y-117792476D01*
X182062380Y-113553642D02*
X181586190Y-113220309D01*
X182062380Y-112982214D02*
X181062380Y-112982214D01*
X181062380Y-113363166D01*
X181110000Y-113458404D01*
X181157619Y-113506023D01*
X181252857Y-113553642D01*
X181395714Y-113553642D01*
X181490952Y-113506023D01*
X181538571Y-113458404D01*
X181586190Y-113363166D01*
X181586190Y-112982214D01*
X181157619Y-113934595D02*
X181110000Y-113982214D01*
X181062380Y-114077452D01*
X181062380Y-114315547D01*
X181110000Y-114410785D01*
X181157619Y-114458404D01*
X181252857Y-114506023D01*
X181348095Y-114506023D01*
X181490952Y-114458404D01*
X182062380Y-113886976D01*
X182062380Y-114506023D01*
X181395714Y-115363166D02*
X182062380Y-115363166D01*
X181014761Y-115125071D02*
X181729047Y-114886976D01*
X181729047Y-115506023D01*
X184602380Y-113657142D02*
X184126190Y-113323809D01*
X184602380Y-113085714D02*
X183602380Y-113085714D01*
X183602380Y-113466666D01*
X183650000Y-113561904D01*
X183697619Y-113609523D01*
X183792857Y-113657142D01*
X183935714Y-113657142D01*
X184030952Y-113609523D01*
X184078571Y-113561904D01*
X184126190Y-113466666D01*
X184126190Y-113085714D01*
X183697619Y-114038095D02*
X183650000Y-114085714D01*
X183602380Y-114180952D01*
X183602380Y-114419047D01*
X183650000Y-114514285D01*
X183697619Y-114561904D01*
X183792857Y-114609523D01*
X183888095Y-114609523D01*
X184030952Y-114561904D01*
X184602380Y-113990476D01*
X184602380Y-114609523D01*
X183602380Y-114942857D02*
X183602380Y-115561904D01*
X183983333Y-115228571D01*
X183983333Y-115371428D01*
X184030952Y-115466666D01*
X184078571Y-115514285D01*
X184173809Y-115561904D01*
X184411904Y-115561904D01*
X184507142Y-115514285D01*
X184554761Y-115466666D01*
X184602380Y-115371428D01*
X184602380Y-115085714D01*
X184554761Y-114990476D01*
X184507142Y-114942857D01*
X168536857Y-111704380D02*
X168870190Y-111228190D01*
X169108285Y-111704380D02*
X169108285Y-110704380D01*
X168727333Y-110704380D01*
X168632095Y-110752000D01*
X168584476Y-110799619D01*
X168536857Y-110894857D01*
X168536857Y-111037714D01*
X168584476Y-111132952D01*
X168632095Y-111180571D01*
X168727333Y-111228190D01*
X169108285Y-111228190D01*
X168155904Y-110799619D02*
X168108285Y-110752000D01*
X168013047Y-110704380D01*
X167774952Y-110704380D01*
X167679714Y-110752000D01*
X167632095Y-110799619D01*
X167584476Y-110894857D01*
X167584476Y-110990095D01*
X167632095Y-111132952D01*
X168203523Y-111704380D01*
X167584476Y-111704380D01*
X167203523Y-110799619D02*
X167155904Y-110752000D01*
X167060666Y-110704380D01*
X166822571Y-110704380D01*
X166727333Y-110752000D01*
X166679714Y-110799619D01*
X166632095Y-110894857D01*
X166632095Y-110990095D01*
X166679714Y-111132952D01*
X167251142Y-111704380D01*
X166632095Y-111704380D01*
X117164380Y-111625142D02*
X116688190Y-111291809D01*
X117164380Y-111053714D02*
X116164380Y-111053714D01*
X116164380Y-111434666D01*
X116212000Y-111529904D01*
X116259619Y-111577523D01*
X116354857Y-111625142D01*
X116497714Y-111625142D01*
X116592952Y-111577523D01*
X116640571Y-111529904D01*
X116688190Y-111434666D01*
X116688190Y-111053714D01*
X116259619Y-112006095D02*
X116212000Y-112053714D01*
X116164380Y-112148952D01*
X116164380Y-112387047D01*
X116212000Y-112482285D01*
X116259619Y-112529904D01*
X116354857Y-112577523D01*
X116450095Y-112577523D01*
X116592952Y-112529904D01*
X117164380Y-111958476D01*
X117164380Y-112577523D01*
X117164380Y-113529904D02*
X117164380Y-112958476D01*
X117164380Y-113244190D02*
X116164380Y-113244190D01*
X116307238Y-113148952D01*
X116402476Y-113053714D01*
X116450095Y-112958476D01*
X168536857Y-114244380D02*
X168870190Y-113768190D01*
X169108285Y-114244380D02*
X169108285Y-113244380D01*
X168727333Y-113244380D01*
X168632095Y-113292000D01*
X168584476Y-113339619D01*
X168536857Y-113434857D01*
X168536857Y-113577714D01*
X168584476Y-113672952D01*
X168632095Y-113720571D01*
X168727333Y-113768190D01*
X169108285Y-113768190D01*
X168155904Y-113339619D02*
X168108285Y-113292000D01*
X168013047Y-113244380D01*
X167774952Y-113244380D01*
X167679714Y-113292000D01*
X167632095Y-113339619D01*
X167584476Y-113434857D01*
X167584476Y-113530095D01*
X167632095Y-113672952D01*
X168203523Y-114244380D01*
X167584476Y-114244380D01*
X166965428Y-113244380D02*
X166870190Y-113244380D01*
X166774952Y-113292000D01*
X166727333Y-113339619D01*
X166679714Y-113434857D01*
X166632095Y-113625333D01*
X166632095Y-113863428D01*
X166679714Y-114053904D01*
X166727333Y-114149142D01*
X166774952Y-114196761D01*
X166870190Y-114244380D01*
X166965428Y-114244380D01*
X167060666Y-114196761D01*
X167108285Y-114149142D01*
X167155904Y-114053904D01*
X167203523Y-113863428D01*
X167203523Y-113625333D01*
X167155904Y-113434857D01*
X167108285Y-113339619D01*
X167060666Y-113292000D01*
X166965428Y-113244380D01*
X182911357Y-128088380D02*
X183244690Y-127612190D01*
X183482785Y-128088380D02*
X183482785Y-127088380D01*
X183101833Y-127088380D01*
X183006595Y-127136000D01*
X182958976Y-127183619D01*
X182911357Y-127278857D01*
X182911357Y-127421714D01*
X182958976Y-127516952D01*
X183006595Y-127564571D01*
X183101833Y-127612190D01*
X183482785Y-127612190D01*
X181958976Y-128088380D02*
X182530404Y-128088380D01*
X182244690Y-128088380D02*
X182244690Y-127088380D01*
X182339928Y-127231238D01*
X182435166Y-127326476D01*
X182530404Y-127374095D01*
X181482785Y-128088380D02*
X181292309Y-128088380D01*
X181197071Y-128040761D01*
X181149452Y-127993142D01*
X181054214Y-127850285D01*
X181006595Y-127659809D01*
X181006595Y-127278857D01*
X181054214Y-127183619D01*
X181101833Y-127136000D01*
X181197071Y-127088380D01*
X181387547Y-127088380D01*
X181482785Y-127136000D01*
X181530404Y-127183619D01*
X181578023Y-127278857D01*
X181578023Y-127516952D01*
X181530404Y-127612190D01*
X181482785Y-127659809D01*
X181387547Y-127707428D01*
X181197071Y-127707428D01*
X181101833Y-127659809D01*
X181054214Y-127612190D01*
X181006595Y-127516952D01*
X182911357Y-124532380D02*
X183244690Y-124056190D01*
X183482785Y-124532380D02*
X183482785Y-123532380D01*
X183101833Y-123532380D01*
X183006595Y-123580000D01*
X182958976Y-123627619D01*
X182911357Y-123722857D01*
X182911357Y-123865714D01*
X182958976Y-123960952D01*
X183006595Y-124008571D01*
X183101833Y-124056190D01*
X183482785Y-124056190D01*
X181958976Y-124532380D02*
X182530404Y-124532380D01*
X182244690Y-124532380D02*
X182244690Y-123532380D01*
X182339928Y-123675238D01*
X182435166Y-123770476D01*
X182530404Y-123818095D01*
X181387547Y-123960952D02*
X181482785Y-123913333D01*
X181530404Y-123865714D01*
X181578023Y-123770476D01*
X181578023Y-123722857D01*
X181530404Y-123627619D01*
X181482785Y-123580000D01*
X181387547Y-123532380D01*
X181197071Y-123532380D01*
X181101833Y-123580000D01*
X181054214Y-123627619D01*
X181006595Y-123722857D01*
X181006595Y-123770476D01*
X181054214Y-123865714D01*
X181101833Y-123913333D01*
X181197071Y-123960952D01*
X181387547Y-123960952D01*
X181482785Y-124008571D01*
X181530404Y-124056190D01*
X181578023Y-124151428D01*
X181578023Y-124341904D01*
X181530404Y-124437142D01*
X181482785Y-124484761D01*
X181387547Y-124532380D01*
X181197071Y-124532380D01*
X181101833Y-124484761D01*
X181054214Y-124437142D01*
X181006595Y-124341904D01*
X181006595Y-124151428D01*
X181054214Y-124056190D01*
X181101833Y-124008571D01*
X181197071Y-123960952D01*
X182911357Y-120976380D02*
X183244690Y-120500190D01*
X183482785Y-120976380D02*
X183482785Y-119976380D01*
X183101833Y-119976380D01*
X183006595Y-120024000D01*
X182958976Y-120071619D01*
X182911357Y-120166857D01*
X182911357Y-120309714D01*
X182958976Y-120404952D01*
X183006595Y-120452571D01*
X183101833Y-120500190D01*
X183482785Y-120500190D01*
X181958976Y-120976380D02*
X182530404Y-120976380D01*
X182244690Y-120976380D02*
X182244690Y-119976380D01*
X182339928Y-120119238D01*
X182435166Y-120214476D01*
X182530404Y-120262095D01*
X181625642Y-119976380D02*
X180958976Y-119976380D01*
X181387547Y-120976380D01*
X184435357Y-89225380D02*
X184768690Y-88749190D01*
X185006785Y-89225380D02*
X185006785Y-88225380D01*
X184625833Y-88225380D01*
X184530595Y-88273000D01*
X184482976Y-88320619D01*
X184435357Y-88415857D01*
X184435357Y-88558714D01*
X184482976Y-88653952D01*
X184530595Y-88701571D01*
X184625833Y-88749190D01*
X185006785Y-88749190D01*
X183482976Y-89225380D02*
X184054404Y-89225380D01*
X183768690Y-89225380D02*
X183768690Y-88225380D01*
X183863928Y-88368238D01*
X183959166Y-88463476D01*
X184054404Y-88511095D01*
X182625833Y-88225380D02*
X182816309Y-88225380D01*
X182911547Y-88273000D01*
X182959166Y-88320619D01*
X183054404Y-88463476D01*
X183102023Y-88653952D01*
X183102023Y-89034904D01*
X183054404Y-89130142D01*
X183006785Y-89177761D01*
X182911547Y-89225380D01*
X182721071Y-89225380D01*
X182625833Y-89177761D01*
X182578214Y-89130142D01*
X182530595Y-89034904D01*
X182530595Y-88796809D01*
X182578214Y-88701571D01*
X182625833Y-88653952D01*
X182721071Y-88606333D01*
X182911547Y-88606333D01*
X183006785Y-88653952D01*
X183054404Y-88701571D01*
X183102023Y-88796809D01*
X184388357Y-99385380D02*
X184721690Y-98909190D01*
X184959785Y-99385380D02*
X184959785Y-98385380D01*
X184578833Y-98385380D01*
X184483595Y-98433000D01*
X184435976Y-98480619D01*
X184388357Y-98575857D01*
X184388357Y-98718714D01*
X184435976Y-98813952D01*
X184483595Y-98861571D01*
X184578833Y-98909190D01*
X184959785Y-98909190D01*
X183435976Y-99385380D02*
X184007404Y-99385380D01*
X183721690Y-99385380D02*
X183721690Y-98385380D01*
X183816928Y-98528238D01*
X183912166Y-98623476D01*
X184007404Y-98671095D01*
X182531214Y-98385380D02*
X183007404Y-98385380D01*
X183055023Y-98861571D01*
X183007404Y-98813952D01*
X182912166Y-98766333D01*
X182674071Y-98766333D01*
X182578833Y-98813952D01*
X182531214Y-98861571D01*
X182483595Y-98956809D01*
X182483595Y-99194904D01*
X182531214Y-99290142D01*
X182578833Y-99337761D01*
X182674071Y-99385380D01*
X182912166Y-99385380D01*
X183007404Y-99337761D01*
X183055023Y-99290142D01*
X121777357Y-117546380D02*
X122110690Y-117070190D01*
X122348785Y-117546380D02*
X122348785Y-116546380D01*
X121967833Y-116546380D01*
X121872595Y-116594000D01*
X121824976Y-116641619D01*
X121777357Y-116736857D01*
X121777357Y-116879714D01*
X121824976Y-116974952D01*
X121872595Y-117022571D01*
X121967833Y-117070190D01*
X122348785Y-117070190D01*
X120824976Y-117546380D02*
X121396404Y-117546380D01*
X121110690Y-117546380D02*
X121110690Y-116546380D01*
X121205928Y-116689238D01*
X121301166Y-116784476D01*
X121396404Y-116832095D01*
X119967833Y-116879714D02*
X119967833Y-117546380D01*
X120205928Y-116498761D02*
X120444023Y-117213047D01*
X119824976Y-117213047D01*
X121546857Y-123134380D02*
X121880190Y-122658190D01*
X122118285Y-123134380D02*
X122118285Y-122134380D01*
X121737333Y-122134380D01*
X121642095Y-122182000D01*
X121594476Y-122229619D01*
X121546857Y-122324857D01*
X121546857Y-122467714D01*
X121594476Y-122562952D01*
X121642095Y-122610571D01*
X121737333Y-122658190D01*
X122118285Y-122658190D01*
X120594476Y-123134380D02*
X121165904Y-123134380D01*
X120880190Y-123134380D02*
X120880190Y-122134380D01*
X120975428Y-122277238D01*
X121070666Y-122372476D01*
X121165904Y-122420095D01*
X120261142Y-122134380D02*
X119642095Y-122134380D01*
X119975428Y-122515333D01*
X119832571Y-122515333D01*
X119737333Y-122562952D01*
X119689714Y-122610571D01*
X119642095Y-122705809D01*
X119642095Y-122943904D01*
X119689714Y-123039142D01*
X119737333Y-123086761D01*
X119832571Y-123134380D01*
X120118285Y-123134380D01*
X120213523Y-123086761D01*
X120261142Y-123039142D01*
X121546857Y-125166380D02*
X121880190Y-124690190D01*
X122118285Y-125166380D02*
X122118285Y-124166380D01*
X121737333Y-124166380D01*
X121642095Y-124214000D01*
X121594476Y-124261619D01*
X121546857Y-124356857D01*
X121546857Y-124499714D01*
X121594476Y-124594952D01*
X121642095Y-124642571D01*
X121737333Y-124690190D01*
X122118285Y-124690190D01*
X120594476Y-125166380D02*
X121165904Y-125166380D01*
X120880190Y-125166380D02*
X120880190Y-124166380D01*
X120975428Y-124309238D01*
X121070666Y-124404476D01*
X121165904Y-124452095D01*
X120213523Y-124261619D02*
X120165904Y-124214000D01*
X120070666Y-124166380D01*
X119832571Y-124166380D01*
X119737333Y-124214000D01*
X119689714Y-124261619D01*
X119642095Y-124356857D01*
X119642095Y-124452095D01*
X119689714Y-124594952D01*
X120261142Y-125166380D01*
X119642095Y-125166380D01*
X176188666Y-128214380D02*
X176522000Y-127738190D01*
X176760095Y-128214380D02*
X176760095Y-127214380D01*
X176379142Y-127214380D01*
X176283904Y-127262000D01*
X176236285Y-127309619D01*
X176188666Y-127404857D01*
X176188666Y-127547714D01*
X176236285Y-127642952D01*
X176283904Y-127690571D01*
X176379142Y-127738190D01*
X176760095Y-127738190D01*
X175617238Y-127642952D02*
X175712476Y-127595333D01*
X175760095Y-127547714D01*
X175807714Y-127452476D01*
X175807714Y-127404857D01*
X175760095Y-127309619D01*
X175712476Y-127262000D01*
X175617238Y-127214380D01*
X175426761Y-127214380D01*
X175331523Y-127262000D01*
X175283904Y-127309619D01*
X175236285Y-127404857D01*
X175236285Y-127452476D01*
X175283904Y-127547714D01*
X175331523Y-127595333D01*
X175426761Y-127642952D01*
X175617238Y-127642952D01*
X175712476Y-127690571D01*
X175760095Y-127738190D01*
X175807714Y-127833428D01*
X175807714Y-128023904D01*
X175760095Y-128119142D01*
X175712476Y-128166761D01*
X175617238Y-128214380D01*
X175426761Y-128214380D01*
X175331523Y-128166761D01*
X175283904Y-128119142D01*
X175236285Y-128023904D01*
X175236285Y-127833428D01*
X175283904Y-127738190D01*
X175331523Y-127690571D01*
X175426761Y-127642952D01*
X176085166Y-124658380D02*
X176418500Y-124182190D01*
X176656595Y-124658380D02*
X176656595Y-123658380D01*
X176275642Y-123658380D01*
X176180404Y-123706000D01*
X176132785Y-123753619D01*
X176085166Y-123848857D01*
X176085166Y-123991714D01*
X176132785Y-124086952D01*
X176180404Y-124134571D01*
X176275642Y-124182190D01*
X176656595Y-124182190D01*
X175751833Y-123658380D02*
X175085166Y-123658380D01*
X175513738Y-124658380D01*
X176188666Y-121102380D02*
X176522000Y-120626190D01*
X176760095Y-121102380D02*
X176760095Y-120102380D01*
X176379142Y-120102380D01*
X176283904Y-120150000D01*
X176236285Y-120197619D01*
X176188666Y-120292857D01*
X176188666Y-120435714D01*
X176236285Y-120530952D01*
X176283904Y-120578571D01*
X176379142Y-120626190D01*
X176760095Y-120626190D01*
X175331523Y-120102380D02*
X175522000Y-120102380D01*
X175617238Y-120150000D01*
X175664857Y-120197619D01*
X175760095Y-120340476D01*
X175807714Y-120530952D01*
X175807714Y-120911904D01*
X175760095Y-121007142D01*
X175712476Y-121054761D01*
X175617238Y-121102380D01*
X175426761Y-121102380D01*
X175331523Y-121054761D01*
X175283904Y-121007142D01*
X175236285Y-120911904D01*
X175236285Y-120673809D01*
X175283904Y-120578571D01*
X175331523Y-120530952D01*
X175426761Y-120483333D01*
X175617238Y-120483333D01*
X175712476Y-120530952D01*
X175760095Y-120578571D01*
X175807714Y-120673809D01*
X184236666Y-94305380D02*
X184570000Y-93829190D01*
X184808095Y-94305380D02*
X184808095Y-93305380D01*
X184427142Y-93305380D01*
X184331904Y-93353000D01*
X184284285Y-93400619D01*
X184236666Y-93495857D01*
X184236666Y-93638714D01*
X184284285Y-93733952D01*
X184331904Y-93781571D01*
X184427142Y-93829190D01*
X184808095Y-93829190D01*
X183331904Y-93305380D02*
X183808095Y-93305380D01*
X183855714Y-93781571D01*
X183808095Y-93733952D01*
X183712857Y-93686333D01*
X183474761Y-93686333D01*
X183379523Y-93733952D01*
X183331904Y-93781571D01*
X183284285Y-93876809D01*
X183284285Y-94114904D01*
X183331904Y-94210142D01*
X183379523Y-94257761D01*
X183474761Y-94305380D01*
X183712857Y-94305380D01*
X183808095Y-94257761D01*
X183855714Y-94210142D01*
X183912166Y-104465380D02*
X184245500Y-103989190D01*
X184483595Y-104465380D02*
X184483595Y-103465380D01*
X184102642Y-103465380D01*
X184007404Y-103513000D01*
X183959785Y-103560619D01*
X183912166Y-103655857D01*
X183912166Y-103798714D01*
X183959785Y-103893952D01*
X184007404Y-103941571D01*
X184102642Y-103989190D01*
X184483595Y-103989190D01*
X183055023Y-103798714D02*
X183055023Y-104465380D01*
X183293119Y-103417761D02*
X183531214Y-104132047D01*
X182912166Y-104132047D01*
X149264666Y-140457180D02*
X149598000Y-139980990D01*
X149836095Y-140457180D02*
X149836095Y-139457180D01*
X149455142Y-139457180D01*
X149359904Y-139504800D01*
X149312285Y-139552419D01*
X149264666Y-139647657D01*
X149264666Y-139790514D01*
X149312285Y-139885752D01*
X149359904Y-139933371D01*
X149455142Y-139980990D01*
X149836095Y-139980990D01*
X148883714Y-139552419D02*
X148836095Y-139504800D01*
X148740857Y-139457180D01*
X148502761Y-139457180D01*
X148407523Y-139504800D01*
X148359904Y-139552419D01*
X148312285Y-139647657D01*
X148312285Y-139742895D01*
X148359904Y-139885752D01*
X148931333Y-140457180D01*
X148312285Y-140457180D01*
X149264666Y-138374380D02*
X149598000Y-137898190D01*
X149836095Y-138374380D02*
X149836095Y-137374380D01*
X149455142Y-137374380D01*
X149359904Y-137422000D01*
X149312285Y-137469619D01*
X149264666Y-137564857D01*
X149264666Y-137707714D01*
X149312285Y-137802952D01*
X149359904Y-137850571D01*
X149455142Y-137898190D01*
X149836095Y-137898190D01*
X148312285Y-138374380D02*
X148883714Y-138374380D01*
X148598000Y-138374380D02*
X148598000Y-137374380D01*
X148693238Y-137517238D01*
X148788476Y-137612476D01*
X148883714Y-137660095D01*
X117156571Y-55546666D02*
X117156571Y-55213333D01*
X117680380Y-55213333D02*
X116680380Y-55213333D01*
X116680380Y-55689523D01*
X117680380Y-56594285D02*
X117680380Y-56022857D01*
X117680380Y-56308571D02*
X116680380Y-56308571D01*
X116823238Y-56213333D01*
X116918476Y-56118095D01*
X116966095Y-56022857D01*
X149486857Y-136247142D02*
X149534476Y-136294761D01*
X149677333Y-136342380D01*
X149772571Y-136342380D01*
X149915428Y-136294761D01*
X150010666Y-136199523D01*
X150058285Y-136104285D01*
X150105904Y-135913809D01*
X150105904Y-135770952D01*
X150058285Y-135580476D01*
X150010666Y-135485238D01*
X149915428Y-135390000D01*
X149772571Y-135342380D01*
X149677333Y-135342380D01*
X149534476Y-135390000D01*
X149486857Y-135437619D01*
X148534476Y-136342380D02*
X149105904Y-136342380D01*
X148820190Y-136342380D02*
X148820190Y-135342380D01*
X148915428Y-135485238D01*
X149010666Y-135580476D01*
X149105904Y-135628095D01*
X148153523Y-135437619D02*
X148105904Y-135390000D01*
X148010666Y-135342380D01*
X147772571Y-135342380D01*
X147677333Y-135390000D01*
X147629714Y-135437619D01*
X147582095Y-135532857D01*
X147582095Y-135628095D01*
X147629714Y-135770952D01*
X148201142Y-136342380D01*
X147582095Y-136342380D01*
X149486857Y-134215142D02*
X149534476Y-134262761D01*
X149677333Y-134310380D01*
X149772571Y-134310380D01*
X149915428Y-134262761D01*
X150010666Y-134167523D01*
X150058285Y-134072285D01*
X150105904Y-133881809D01*
X150105904Y-133738952D01*
X150058285Y-133548476D01*
X150010666Y-133453238D01*
X149915428Y-133358000D01*
X149772571Y-133310380D01*
X149677333Y-133310380D01*
X149534476Y-133358000D01*
X149486857Y-133405619D01*
X148534476Y-134310380D02*
X149105904Y-134310380D01*
X148820190Y-134310380D02*
X148820190Y-133310380D01*
X148915428Y-133453238D01*
X149010666Y-133548476D01*
X149105904Y-133596095D01*
X147582095Y-134310380D02*
X148153523Y-134310380D01*
X147867809Y-134310380D02*
X147867809Y-133310380D01*
X147963047Y-133453238D01*
X148058285Y-133548476D01*
X148153523Y-133596095D01*
X158818857Y-91445142D02*
X158866476Y-91492761D01*
X159009333Y-91540380D01*
X159104571Y-91540380D01*
X159247428Y-91492761D01*
X159342666Y-91397523D01*
X159390285Y-91302285D01*
X159437904Y-91111809D01*
X159437904Y-90968952D01*
X159390285Y-90778476D01*
X159342666Y-90683238D01*
X159247428Y-90588000D01*
X159104571Y-90540380D01*
X159009333Y-90540380D01*
X158866476Y-90588000D01*
X158818857Y-90635619D01*
X157866476Y-91540380D02*
X158437904Y-91540380D01*
X158152190Y-91540380D02*
X158152190Y-90540380D01*
X158247428Y-90683238D01*
X158342666Y-90778476D01*
X158437904Y-90826095D01*
X157247428Y-90540380D02*
X157152190Y-90540380D01*
X157056952Y-90588000D01*
X157009333Y-90635619D01*
X156961714Y-90730857D01*
X156914095Y-90921333D01*
X156914095Y-91159428D01*
X156961714Y-91349904D01*
X157009333Y-91445142D01*
X157056952Y-91492761D01*
X157152190Y-91540380D01*
X157247428Y-91540380D01*
X157342666Y-91492761D01*
X157390285Y-91445142D01*
X157437904Y-91349904D01*
X157485523Y-91159428D01*
X157485523Y-90921333D01*
X157437904Y-90730857D01*
X157390285Y-90635619D01*
X157342666Y-90588000D01*
X157247428Y-90540380D01*
X114911142Y-122007333D02*
X114958761Y-121959714D01*
X115006380Y-121816857D01*
X115006380Y-121721619D01*
X114958761Y-121578761D01*
X114863523Y-121483523D01*
X114768285Y-121435904D01*
X114577809Y-121388285D01*
X114434952Y-121388285D01*
X114244476Y-121435904D01*
X114149238Y-121483523D01*
X114054000Y-121578761D01*
X114006380Y-121721619D01*
X114006380Y-121816857D01*
X114054000Y-121959714D01*
X114101619Y-122007333D01*
X114006380Y-122864476D02*
X114006380Y-122674000D01*
X114054000Y-122578761D01*
X114101619Y-122531142D01*
X114244476Y-122435904D01*
X114434952Y-122388285D01*
X114815904Y-122388285D01*
X114911142Y-122435904D01*
X114958761Y-122483523D01*
X115006380Y-122578761D01*
X115006380Y-122769238D01*
X114958761Y-122864476D01*
X114911142Y-122912095D01*
X114815904Y-122959714D01*
X114577809Y-122959714D01*
X114482571Y-122912095D01*
X114434952Y-122864476D01*
X114387333Y-122769238D01*
X114387333Y-122578761D01*
X114434952Y-122483523D01*
X114482571Y-122435904D01*
X114577809Y-122388285D01*
X188634666Y-120499142D02*
X188682285Y-120546761D01*
X188825142Y-120594380D01*
X188920380Y-120594380D01*
X189063238Y-120546761D01*
X189158476Y-120451523D01*
X189206095Y-120356285D01*
X189253714Y-120165809D01*
X189253714Y-120022952D01*
X189206095Y-119832476D01*
X189158476Y-119737238D01*
X189063238Y-119642000D01*
X188920380Y-119594380D01*
X188825142Y-119594380D01*
X188682285Y-119642000D01*
X188634666Y-119689619D01*
X187777523Y-119927714D02*
X187777523Y-120594380D01*
X188015619Y-119546761D02*
X188253714Y-120261047D01*
X187634666Y-120261047D01*
X157880952Y-95432571D02*
X157738095Y-95480190D01*
X157690476Y-95527809D01*
X157642857Y-95623047D01*
X157642857Y-95765904D01*
X157690476Y-95861142D01*
X157738095Y-95908761D01*
X157833333Y-95956380D01*
X158214285Y-95956380D01*
X158214285Y-94956380D01*
X157880952Y-94956380D01*
X157785714Y-95004000D01*
X157738095Y-95051619D01*
X157690476Y-95146857D01*
X157690476Y-95242095D01*
X157738095Y-95337333D01*
X157785714Y-95384952D01*
X157880952Y-95432571D01*
X158214285Y-95432571D01*
X157309523Y-94956380D02*
X156642857Y-94956380D01*
X157309523Y-95956380D01*
X156642857Y-95956380D01*
X155738095Y-95956380D02*
X156309523Y-95956380D01*
X156023809Y-95956380D02*
X156023809Y-94956380D01*
X156119047Y-95099238D01*
X156214285Y-95194476D01*
X156309523Y-95242095D01*
X154531428Y-98669047D02*
X154531428Y-99430952D01*
X154912380Y-99050000D02*
X154150476Y-99050000D01*
%LPC*%
G36*
G01*
X146615999Y-120899500D02*
X147516001Y-120899500D01*
G75*
G02*
X147766000Y-121149499I0J-249999D01*
G01*
X147766000Y-121674501D01*
G75*
G02*
X147516001Y-121924500I-249999J0D01*
G01*
X146615999Y-121924500D01*
G75*
G02*
X146366000Y-121674501I0J249999D01*
G01*
X146366000Y-121149499D01*
G75*
G02*
X146615999Y-120899500I249999J0D01*
G01*
G37*
G36*
G01*
X146615999Y-119074500D02*
X147516001Y-119074500D01*
G75*
G02*
X147766000Y-119324499I0J-249999D01*
G01*
X147766000Y-119849501D01*
G75*
G02*
X147516001Y-120099500I-249999J0D01*
G01*
X146615999Y-120099500D01*
G75*
G02*
X146366000Y-119849501I0J249999D01*
G01*
X146366000Y-119324499D01*
G75*
G02*
X146615999Y-119074500I249999J0D01*
G01*
G37*
G36*
G01*
X148024000Y-138397000D02*
X148024000Y-137447000D01*
G75*
G02*
X148274000Y-137197000I250000J0D01*
G01*
X148774000Y-137197000D01*
G75*
G02*
X149024000Y-137447000I0J-250000D01*
G01*
X149024000Y-138397000D01*
G75*
G02*
X148774000Y-138647000I-250000J0D01*
G01*
X148274000Y-138647000D01*
G75*
G02*
X148024000Y-138397000I0J250000D01*
G01*
G37*
G36*
G01*
X146124000Y-138397000D02*
X146124000Y-137447000D01*
G75*
G02*
X146374000Y-137197000I250000J0D01*
G01*
X146874000Y-137197000D01*
G75*
G02*
X147124000Y-137447000I0J-250000D01*
G01*
X147124000Y-138397000D01*
G75*
G02*
X146874000Y-138647000I-250000J0D01*
G01*
X146374000Y-138647000D01*
G75*
G02*
X146124000Y-138397000I0J250000D01*
G01*
G37*
D12*
X159472000Y-78740000D03*
D13*
X156972000Y-78740000D03*
D12*
X159472000Y-86360000D03*
D13*
X156972000Y-86360000D03*
D14*
X122688000Y-73064000D03*
D15*
X167688000Y-60264000D03*
X122688000Y-52264000D03*
X167688000Y-52264000D03*
D16*
X180340000Y-58612000D03*
X180340000Y-57212000D03*
X182880000Y-58612000D03*
X182880000Y-57212000D03*
D17*
X185420000Y-60706000D03*
X180340000Y-60706000D03*
X182880000Y-60706000D03*
D18*
X193012000Y-90678000D03*
X190472000Y-90678000D03*
D19*
X187932000Y-90678000D03*
D20*
X190500000Y-93218000D03*
X191900000Y-93218000D03*
X190500000Y-103378000D03*
X191900000Y-103378000D03*
X190562000Y-98298000D03*
X191962000Y-98298000D03*
X190562000Y-108458000D03*
X191962000Y-108458000D03*
D18*
X109728000Y-144780000D03*
X109728000Y-142240000D03*
D19*
X109728000Y-139700000D03*
D21*
X187310000Y-137094000D03*
X188610000Y-137094000D03*
X187960000Y-135194000D03*
X188610000Y-135194000D03*
X187310000Y-135194000D03*
D16*
X171196000Y-144842000D03*
X171196000Y-146242000D03*
D21*
X121382000Y-136520000D03*
X122682000Y-136520000D03*
X122032000Y-134620000D03*
X122682000Y-134620000D03*
X121382000Y-134620000D03*
D16*
X113284000Y-111060000D03*
X113284000Y-112460000D03*
D22*
X148528000Y-99664000D03*
X148528000Y-100934000D03*
X147258000Y-99664000D03*
X147258000Y-100934000D03*
X145988000Y-99664000D03*
X145988000Y-100934000D03*
X144718000Y-99664000D03*
X144718000Y-100934000D03*
X143448000Y-99664000D03*
X143448000Y-100934000D03*
X142178000Y-99664000D03*
D17*
X142178000Y-100934000D03*
G36*
G01*
X177512000Y-76447000D02*
X177512000Y-76797000D01*
G75*
G02*
X177337000Y-76972000I-175000J0D01*
G01*
X175187000Y-76972000D01*
G75*
G02*
X175012000Y-76797000I0J175000D01*
G01*
X175012000Y-76447000D01*
G75*
G02*
X175187000Y-76272000I175000J0D01*
G01*
X177337000Y-76272000D01*
G75*
G02*
X177512000Y-76447000I0J-175000D01*
G01*
G37*
G36*
G01*
X188487000Y-84272000D02*
X188137000Y-84272000D01*
G75*
G02*
X187962000Y-84097000I0J175000D01*
G01*
X187962000Y-81947000D01*
G75*
G02*
X188137000Y-81772000I175000J0D01*
G01*
X188487000Y-81772000D01*
G75*
G02*
X188662000Y-81947000I0J-175000D01*
G01*
X188662000Y-84097000D01*
G75*
G02*
X188487000Y-84272000I-175000J0D01*
G01*
G37*
G36*
G01*
X177512000Y-77547000D02*
X177512000Y-77897000D01*
G75*
G02*
X177337000Y-78072000I-175000J0D01*
G01*
X175187000Y-78072000D01*
G75*
G02*
X175012000Y-77897000I0J175000D01*
G01*
X175012000Y-77547000D01*
G75*
G02*
X175187000Y-77372000I175000J0D01*
G01*
X177337000Y-77372000D01*
G75*
G02*
X177512000Y-77547000I0J-175000D01*
G01*
G37*
G36*
G01*
X180437000Y-64572000D02*
X180787000Y-64572000D01*
G75*
G02*
X180962000Y-64747000I0J-175000D01*
G01*
X180962000Y-66897000D01*
G75*
G02*
X180787000Y-67072000I-175000J0D01*
G01*
X180437000Y-67072000D01*
G75*
G02*
X180262000Y-66897000I0J175000D01*
G01*
X180262000Y-64747000D01*
G75*
G02*
X180437000Y-64572000I175000J0D01*
G01*
G37*
G36*
G01*
X177512000Y-78647000D02*
X177512000Y-78997000D01*
G75*
G02*
X177337000Y-79172000I-175000J0D01*
G01*
X175187000Y-79172000D01*
G75*
G02*
X175012000Y-78997000I0J175000D01*
G01*
X175012000Y-78647000D01*
G75*
G02*
X175187000Y-78472000I175000J0D01*
G01*
X177337000Y-78472000D01*
G75*
G02*
X177512000Y-78647000I0J-175000D01*
G01*
G37*
G36*
G01*
X181887000Y-84272000D02*
X181537000Y-84272000D01*
G75*
G02*
X181362000Y-84097000I0J175000D01*
G01*
X181362000Y-81947000D01*
G75*
G02*
X181537000Y-81772000I175000J0D01*
G01*
X181887000Y-81772000D01*
G75*
G02*
X182062000Y-81947000I0J-175000D01*
G01*
X182062000Y-84097000D01*
G75*
G02*
X181887000Y-84272000I-175000J0D01*
G01*
G37*
G36*
G01*
X177512000Y-74247000D02*
X177512000Y-74597000D01*
G75*
G02*
X177337000Y-74772000I-175000J0D01*
G01*
X175187000Y-74772000D01*
G75*
G02*
X175012000Y-74597000I0J175000D01*
G01*
X175012000Y-74247000D01*
G75*
G02*
X175187000Y-74072000I175000J0D01*
G01*
X177337000Y-74072000D01*
G75*
G02*
X177512000Y-74247000I0J-175000D01*
G01*
G37*
G36*
G01*
X192812000Y-69847000D02*
X192812000Y-70197000D01*
G75*
G02*
X192637000Y-70372000I-175000J0D01*
G01*
X190487000Y-70372000D01*
G75*
G02*
X190312000Y-70197000I0J175000D01*
G01*
X190312000Y-69847000D01*
G75*
G02*
X190487000Y-69672000I175000J0D01*
G01*
X192637000Y-69672000D01*
G75*
G02*
X192812000Y-69847000I0J-175000D01*
G01*
G37*
G36*
G01*
X177512000Y-80847000D02*
X177512000Y-81197000D01*
G75*
G02*
X177337000Y-81372000I-175000J0D01*
G01*
X175187000Y-81372000D01*
G75*
G02*
X175012000Y-81197000I0J175000D01*
G01*
X175012000Y-80847000D01*
G75*
G02*
X175187000Y-80672000I175000J0D01*
G01*
X177337000Y-80672000D01*
G75*
G02*
X177512000Y-80847000I0J-175000D01*
G01*
G37*
G36*
G01*
X179337000Y-64572000D02*
X179687000Y-64572000D01*
G75*
G02*
X179862000Y-64747000I0J-175000D01*
G01*
X179862000Y-66897000D01*
G75*
G02*
X179687000Y-67072000I-175000J0D01*
G01*
X179337000Y-67072000D01*
G75*
G02*
X179162000Y-66897000I0J175000D01*
G01*
X179162000Y-64747000D01*
G75*
G02*
X179337000Y-64572000I175000J0D01*
G01*
G37*
G36*
G01*
X192812000Y-68747000D02*
X192812000Y-69097000D01*
G75*
G02*
X192637000Y-69272000I-175000J0D01*
G01*
X190487000Y-69272000D01*
G75*
G02*
X190312000Y-69097000I0J175000D01*
G01*
X190312000Y-68747000D01*
G75*
G02*
X190487000Y-68572000I175000J0D01*
G01*
X192637000Y-68572000D01*
G75*
G02*
X192812000Y-68747000I0J-175000D01*
G01*
G37*
G36*
G01*
X177512000Y-79747000D02*
X177512000Y-80097000D01*
G75*
G02*
X177337000Y-80272000I-175000J0D01*
G01*
X175187000Y-80272000D01*
G75*
G02*
X175012000Y-80097000I0J175000D01*
G01*
X175012000Y-79747000D01*
G75*
G02*
X175187000Y-79572000I175000J0D01*
G01*
X177337000Y-79572000D01*
G75*
G02*
X177512000Y-79747000I0J-175000D01*
G01*
G37*
G36*
G01*
X184087000Y-84272000D02*
X183737000Y-84272000D01*
G75*
G02*
X183562000Y-84097000I0J175000D01*
G01*
X183562000Y-81947000D01*
G75*
G02*
X183737000Y-81772000I175000J0D01*
G01*
X184087000Y-81772000D01*
G75*
G02*
X184262000Y-81947000I0J-175000D01*
G01*
X184262000Y-84097000D01*
G75*
G02*
X184087000Y-84272000I-175000J0D01*
G01*
G37*
G36*
G01*
X180787000Y-84272000D02*
X180437000Y-84272000D01*
G75*
G02*
X180262000Y-84097000I0J175000D01*
G01*
X180262000Y-81947000D01*
G75*
G02*
X180437000Y-81772000I175000J0D01*
G01*
X180787000Y-81772000D01*
G75*
G02*
X180962000Y-81947000I0J-175000D01*
G01*
X180962000Y-84097000D01*
G75*
G02*
X180787000Y-84272000I-175000J0D01*
G01*
G37*
G36*
G01*
X186287000Y-84272000D02*
X185937000Y-84272000D01*
G75*
G02*
X185762000Y-84097000I0J175000D01*
G01*
X185762000Y-81947000D01*
G75*
G02*
X185937000Y-81772000I175000J0D01*
G01*
X186287000Y-81772000D01*
G75*
G02*
X186462000Y-81947000I0J-175000D01*
G01*
X186462000Y-84097000D01*
G75*
G02*
X186287000Y-84272000I-175000J0D01*
G01*
G37*
G36*
G01*
X192812000Y-74247000D02*
X192812000Y-74597000D01*
G75*
G02*
X192637000Y-74772000I-175000J0D01*
G01*
X190487000Y-74772000D01*
G75*
G02*
X190312000Y-74597000I0J175000D01*
G01*
X190312000Y-74247000D01*
G75*
G02*
X190487000Y-74072000I175000J0D01*
G01*
X192637000Y-74072000D01*
G75*
G02*
X192812000Y-74247000I0J-175000D01*
G01*
G37*
G36*
G01*
X177512000Y-75347000D02*
X177512000Y-75697000D01*
G75*
G02*
X177337000Y-75872000I-175000J0D01*
G01*
X175187000Y-75872000D01*
G75*
G02*
X175012000Y-75697000I0J175000D01*
G01*
X175012000Y-75347000D01*
G75*
G02*
X175187000Y-75172000I175000J0D01*
G01*
X177337000Y-75172000D01*
G75*
G02*
X177512000Y-75347000I0J-175000D01*
G01*
G37*
G36*
G01*
X177512000Y-67647000D02*
X177512000Y-67997000D01*
G75*
G02*
X177337000Y-68172000I-175000J0D01*
G01*
X175187000Y-68172000D01*
G75*
G02*
X175012000Y-67997000I0J175000D01*
G01*
X175012000Y-67647000D01*
G75*
G02*
X175187000Y-67472000I175000J0D01*
G01*
X177337000Y-67472000D01*
G75*
G02*
X177512000Y-67647000I0J-175000D01*
G01*
G37*
G36*
G01*
X192812000Y-72047000D02*
X192812000Y-72397000D01*
G75*
G02*
X192637000Y-72572000I-175000J0D01*
G01*
X190487000Y-72572000D01*
G75*
G02*
X190312000Y-72397000I0J175000D01*
G01*
X190312000Y-72047000D01*
G75*
G02*
X190487000Y-71872000I175000J0D01*
G01*
X192637000Y-71872000D01*
G75*
G02*
X192812000Y-72047000I0J-175000D01*
G01*
G37*
G36*
G01*
X192812000Y-80847000D02*
X192812000Y-81197000D01*
G75*
G02*
X192637000Y-81372000I-175000J0D01*
G01*
X190487000Y-81372000D01*
G75*
G02*
X190312000Y-81197000I0J175000D01*
G01*
X190312000Y-80847000D01*
G75*
G02*
X190487000Y-80672000I175000J0D01*
G01*
X192637000Y-80672000D01*
G75*
G02*
X192812000Y-80847000I0J-175000D01*
G01*
G37*
G36*
G01*
X177512000Y-68747000D02*
X177512000Y-69097000D01*
G75*
G02*
X177337000Y-69272000I-175000J0D01*
G01*
X175187000Y-69272000D01*
G75*
G02*
X175012000Y-69097000I0J175000D01*
G01*
X175012000Y-68747000D01*
G75*
G02*
X175187000Y-68572000I175000J0D01*
G01*
X177337000Y-68572000D01*
G75*
G02*
X177512000Y-68747000I0J-175000D01*
G01*
G37*
G36*
G01*
X177512000Y-70947000D02*
X177512000Y-71297000D01*
G75*
G02*
X177337000Y-71472000I-175000J0D01*
G01*
X175187000Y-71472000D01*
G75*
G02*
X175012000Y-71297000I0J175000D01*
G01*
X175012000Y-70947000D01*
G75*
G02*
X175187000Y-70772000I175000J0D01*
G01*
X177337000Y-70772000D01*
G75*
G02*
X177512000Y-70947000I0J-175000D01*
G01*
G37*
G36*
G01*
X185187000Y-84272000D02*
X184837000Y-84272000D01*
G75*
G02*
X184662000Y-84097000I0J175000D01*
G01*
X184662000Y-81947000D01*
G75*
G02*
X184837000Y-81772000I175000J0D01*
G01*
X185187000Y-81772000D01*
G75*
G02*
X185362000Y-81947000I0J-175000D01*
G01*
X185362000Y-84097000D01*
G75*
G02*
X185187000Y-84272000I-175000J0D01*
G01*
G37*
G36*
G01*
X187387000Y-84272000D02*
X187037000Y-84272000D01*
G75*
G02*
X186862000Y-84097000I0J175000D01*
G01*
X186862000Y-81947000D01*
G75*
G02*
X187037000Y-81772000I175000J0D01*
G01*
X187387000Y-81772000D01*
G75*
G02*
X187562000Y-81947000I0J-175000D01*
G01*
X187562000Y-84097000D01*
G75*
G02*
X187387000Y-84272000I-175000J0D01*
G01*
G37*
G36*
G01*
X192812000Y-73147000D02*
X192812000Y-73497000D01*
G75*
G02*
X192637000Y-73672000I-175000J0D01*
G01*
X190487000Y-73672000D01*
G75*
G02*
X190312000Y-73497000I0J175000D01*
G01*
X190312000Y-73147000D01*
G75*
G02*
X190487000Y-72972000I175000J0D01*
G01*
X192637000Y-72972000D01*
G75*
G02*
X192812000Y-73147000I0J-175000D01*
G01*
G37*
G36*
G01*
X192812000Y-79747000D02*
X192812000Y-80097000D01*
G75*
G02*
X192637000Y-80272000I-175000J0D01*
G01*
X190487000Y-80272000D01*
G75*
G02*
X190312000Y-80097000I0J175000D01*
G01*
X190312000Y-79747000D01*
G75*
G02*
X190487000Y-79572000I175000J0D01*
G01*
X192637000Y-79572000D01*
G75*
G02*
X192812000Y-79747000I0J-175000D01*
G01*
G37*
G36*
G01*
X192812000Y-76447000D02*
X192812000Y-76797000D01*
G75*
G02*
X192637000Y-76972000I-175000J0D01*
G01*
X190487000Y-76972000D01*
G75*
G02*
X190312000Y-76797000I0J175000D01*
G01*
X190312000Y-76447000D01*
G75*
G02*
X190487000Y-76272000I175000J0D01*
G01*
X192637000Y-76272000D01*
G75*
G02*
X192812000Y-76447000I0J-175000D01*
G01*
G37*
G36*
G01*
X192812000Y-75347000D02*
X192812000Y-75697000D01*
G75*
G02*
X192637000Y-75872000I-175000J0D01*
G01*
X190487000Y-75872000D01*
G75*
G02*
X190312000Y-75697000I0J175000D01*
G01*
X190312000Y-75347000D01*
G75*
G02*
X190487000Y-75172000I175000J0D01*
G01*
X192637000Y-75172000D01*
G75*
G02*
X192812000Y-75347000I0J-175000D01*
G01*
G37*
G36*
G01*
X177512000Y-69847000D02*
X177512000Y-70197000D01*
G75*
G02*
X177337000Y-70372000I-175000J0D01*
G01*
X175187000Y-70372000D01*
G75*
G02*
X175012000Y-70197000I0J175000D01*
G01*
X175012000Y-69847000D01*
G75*
G02*
X175187000Y-69672000I175000J0D01*
G01*
X177337000Y-69672000D01*
G75*
G02*
X177512000Y-69847000I0J-175000D01*
G01*
G37*
G36*
G01*
X192812000Y-78647000D02*
X192812000Y-78997000D01*
G75*
G02*
X192637000Y-79172000I-175000J0D01*
G01*
X190487000Y-79172000D01*
G75*
G02*
X190312000Y-78997000I0J175000D01*
G01*
X190312000Y-78647000D01*
G75*
G02*
X190487000Y-78472000I175000J0D01*
G01*
X192637000Y-78472000D01*
G75*
G02*
X192812000Y-78647000I0J-175000D01*
G01*
G37*
G36*
G01*
X182987000Y-84272000D02*
X182637000Y-84272000D01*
G75*
G02*
X182462000Y-84097000I0J175000D01*
G01*
X182462000Y-81947000D01*
G75*
G02*
X182637000Y-81772000I175000J0D01*
G01*
X182987000Y-81772000D01*
G75*
G02*
X183162000Y-81947000I0J-175000D01*
G01*
X183162000Y-84097000D01*
G75*
G02*
X182987000Y-84272000I-175000J0D01*
G01*
G37*
G36*
G01*
X181537000Y-64572000D02*
X181887000Y-64572000D01*
G75*
G02*
X182062000Y-64747000I0J-175000D01*
G01*
X182062000Y-66897000D01*
G75*
G02*
X181887000Y-67072000I-175000J0D01*
G01*
X181537000Y-67072000D01*
G75*
G02*
X181362000Y-66897000I0J175000D01*
G01*
X181362000Y-64747000D01*
G75*
G02*
X181537000Y-64572000I175000J0D01*
G01*
G37*
G36*
G01*
X187037000Y-64572000D02*
X187387000Y-64572000D01*
G75*
G02*
X187562000Y-64747000I0J-175000D01*
G01*
X187562000Y-66897000D01*
G75*
G02*
X187387000Y-67072000I-175000J0D01*
G01*
X187037000Y-67072000D01*
G75*
G02*
X186862000Y-66897000I0J175000D01*
G01*
X186862000Y-64747000D01*
G75*
G02*
X187037000Y-64572000I175000J0D01*
G01*
G37*
G36*
G01*
X192812000Y-70947000D02*
X192812000Y-71297000D01*
G75*
G02*
X192637000Y-71472000I-175000J0D01*
G01*
X190487000Y-71472000D01*
G75*
G02*
X190312000Y-71297000I0J175000D01*
G01*
X190312000Y-70947000D01*
G75*
G02*
X190487000Y-70772000I175000J0D01*
G01*
X192637000Y-70772000D01*
G75*
G02*
X192812000Y-70947000I0J-175000D01*
G01*
G37*
G36*
G01*
X192812000Y-77547000D02*
X192812000Y-77897000D01*
G75*
G02*
X192637000Y-78072000I-175000J0D01*
G01*
X190487000Y-78072000D01*
G75*
G02*
X190312000Y-77897000I0J175000D01*
G01*
X190312000Y-77547000D01*
G75*
G02*
X190487000Y-77372000I175000J0D01*
G01*
X192637000Y-77372000D01*
G75*
G02*
X192812000Y-77547000I0J-175000D01*
G01*
G37*
G36*
G01*
X177512000Y-73147000D02*
X177512000Y-73497000D01*
G75*
G02*
X177337000Y-73672000I-175000J0D01*
G01*
X175187000Y-73672000D01*
G75*
G02*
X175012000Y-73497000I0J175000D01*
G01*
X175012000Y-73147000D01*
G75*
G02*
X175187000Y-72972000I175000J0D01*
G01*
X177337000Y-72972000D01*
G75*
G02*
X177512000Y-73147000I0J-175000D01*
G01*
G37*
G36*
G01*
X182637000Y-64572000D02*
X182987000Y-64572000D01*
G75*
G02*
X183162000Y-64747000I0J-175000D01*
G01*
X183162000Y-66897000D01*
G75*
G02*
X182987000Y-67072000I-175000J0D01*
G01*
X182637000Y-67072000D01*
G75*
G02*
X182462000Y-66897000I0J175000D01*
G01*
X182462000Y-64747000D01*
G75*
G02*
X182637000Y-64572000I175000J0D01*
G01*
G37*
G36*
G01*
X185937000Y-64572000D02*
X186287000Y-64572000D01*
G75*
G02*
X186462000Y-64747000I0J-175000D01*
G01*
X186462000Y-66897000D01*
G75*
G02*
X186287000Y-67072000I-175000J0D01*
G01*
X185937000Y-67072000D01*
G75*
G02*
X185762000Y-66897000I0J175000D01*
G01*
X185762000Y-64747000D01*
G75*
G02*
X185937000Y-64572000I175000J0D01*
G01*
G37*
G36*
G01*
X188137000Y-64572000D02*
X188487000Y-64572000D01*
G75*
G02*
X188662000Y-64747000I0J-175000D01*
G01*
X188662000Y-66897000D01*
G75*
G02*
X188487000Y-67072000I-175000J0D01*
G01*
X188137000Y-67072000D01*
G75*
G02*
X187962000Y-66897000I0J175000D01*
G01*
X187962000Y-64747000D01*
G75*
G02*
X188137000Y-64572000I175000J0D01*
G01*
G37*
G36*
G01*
X183737000Y-64572000D02*
X184087000Y-64572000D01*
G75*
G02*
X184262000Y-64747000I0J-175000D01*
G01*
X184262000Y-66897000D01*
G75*
G02*
X184087000Y-67072000I-175000J0D01*
G01*
X183737000Y-67072000D01*
G75*
G02*
X183562000Y-66897000I0J175000D01*
G01*
X183562000Y-64747000D01*
G75*
G02*
X183737000Y-64572000I175000J0D01*
G01*
G37*
G36*
G01*
X177512000Y-72047000D02*
X177512000Y-72397000D01*
G75*
G02*
X177337000Y-72572000I-175000J0D01*
G01*
X175187000Y-72572000D01*
G75*
G02*
X175012000Y-72397000I0J175000D01*
G01*
X175012000Y-72047000D01*
G75*
G02*
X175187000Y-71872000I175000J0D01*
G01*
X177337000Y-71872000D01*
G75*
G02*
X177512000Y-72047000I0J-175000D01*
G01*
G37*
G36*
G01*
X179687000Y-84272000D02*
X179337000Y-84272000D01*
G75*
G02*
X179162000Y-84097000I0J175000D01*
G01*
X179162000Y-81947000D01*
G75*
G02*
X179337000Y-81772000I175000J0D01*
G01*
X179687000Y-81772000D01*
G75*
G02*
X179862000Y-81947000I0J-175000D01*
G01*
X179862000Y-84097000D01*
G75*
G02*
X179687000Y-84272000I-175000J0D01*
G01*
G37*
G36*
G01*
X184837000Y-64572000D02*
X185187000Y-64572000D01*
G75*
G02*
X185362000Y-64747000I0J-175000D01*
G01*
X185362000Y-66897000D01*
G75*
G02*
X185187000Y-67072000I-175000J0D01*
G01*
X184837000Y-67072000D01*
G75*
G02*
X184662000Y-66897000I0J175000D01*
G01*
X184662000Y-64747000D01*
G75*
G02*
X184837000Y-64572000I175000J0D01*
G01*
G37*
G36*
G01*
X192812000Y-67647000D02*
X192812000Y-67997000D01*
G75*
G02*
X192637000Y-68172000I-175000J0D01*
G01*
X190487000Y-68172000D01*
G75*
G02*
X190312000Y-67997000I0J175000D01*
G01*
X190312000Y-67647000D01*
G75*
G02*
X190487000Y-67472000I175000J0D01*
G01*
X192637000Y-67472000D01*
G75*
G02*
X192812000Y-67647000I0J-175000D01*
G01*
G37*
G36*
G01*
X176841999Y-57042000D02*
X177742001Y-57042000D01*
G75*
G02*
X177992000Y-57291999I0J-249999D01*
G01*
X177992000Y-57817001D01*
G75*
G02*
X177742001Y-58067000I-249999J0D01*
G01*
X176841999Y-58067000D01*
G75*
G02*
X176592000Y-57817001I0J249999D01*
G01*
X176592000Y-57291999D01*
G75*
G02*
X176841999Y-57042000I249999J0D01*
G01*
G37*
G36*
G01*
X176841999Y-55217000D02*
X177742001Y-55217000D01*
G75*
G02*
X177992000Y-55466999I0J-249999D01*
G01*
X177992000Y-55992001D01*
G75*
G02*
X177742001Y-56242000I-249999J0D01*
G01*
X176841999Y-56242000D01*
G75*
G02*
X176592000Y-55992001I0J249999D01*
G01*
X176592000Y-55466999D01*
G75*
G02*
X176841999Y-55217000I249999J0D01*
G01*
G37*
G36*
G01*
X180282001Y-97263000D02*
X179381999Y-97263000D01*
G75*
G02*
X179132000Y-97013001I0J249999D01*
G01*
X179132000Y-96487999D01*
G75*
G02*
X179381999Y-96238000I249999J0D01*
G01*
X180282001Y-96238000D01*
G75*
G02*
X180532000Y-96487999I0J-249999D01*
G01*
X180532000Y-97013001D01*
G75*
G02*
X180282001Y-97263000I-249999J0D01*
G01*
G37*
G36*
G01*
X180282001Y-99088000D02*
X179381999Y-99088000D01*
G75*
G02*
X179132000Y-98838001I0J249999D01*
G01*
X179132000Y-98312999D01*
G75*
G02*
X179381999Y-98063000I249999J0D01*
G01*
X180282001Y-98063000D01*
G75*
G02*
X180532000Y-98312999I0J-249999D01*
G01*
X180532000Y-98838001D01*
G75*
G02*
X180282001Y-99088000I-249999J0D01*
G01*
G37*
G36*
G01*
X178123001Y-97263000D02*
X177222999Y-97263000D01*
G75*
G02*
X176973000Y-97013001I0J249999D01*
G01*
X176973000Y-96487999D01*
G75*
G02*
X177222999Y-96238000I249999J0D01*
G01*
X178123001Y-96238000D01*
G75*
G02*
X178373000Y-96487999I0J-249999D01*
G01*
X178373000Y-97013001D01*
G75*
G02*
X178123001Y-97263000I-249999J0D01*
G01*
G37*
G36*
G01*
X178123001Y-99088000D02*
X177222999Y-99088000D01*
G75*
G02*
X176973000Y-98838001I0J249999D01*
G01*
X176973000Y-98312999D01*
G75*
G02*
X177222999Y-98063000I249999J0D01*
G01*
X178123001Y-98063000D01*
G75*
G02*
X178373000Y-98312999I0J-249999D01*
G01*
X178373000Y-98838001D01*
G75*
G02*
X178123001Y-99088000I-249999J0D01*
G01*
G37*
G36*
G01*
X175063999Y-98039500D02*
X175964001Y-98039500D01*
G75*
G02*
X176214000Y-98289499I0J-249999D01*
G01*
X176214000Y-98814501D01*
G75*
G02*
X175964001Y-99064500I-249999J0D01*
G01*
X175063999Y-99064500D01*
G75*
G02*
X174814000Y-98814501I0J249999D01*
G01*
X174814000Y-98289499D01*
G75*
G02*
X175063999Y-98039500I249999J0D01*
G01*
G37*
G36*
G01*
X175063999Y-96214500D02*
X175964001Y-96214500D01*
G75*
G02*
X176214000Y-96464499I0J-249999D01*
G01*
X176214000Y-96989501D01*
G75*
G02*
X175964001Y-97239500I-249999J0D01*
G01*
X175063999Y-97239500D01*
G75*
G02*
X174814000Y-96989501I0J249999D01*
G01*
X174814000Y-96464499D01*
G75*
G02*
X175063999Y-96214500I249999J0D01*
G01*
G37*
G36*
G01*
X179381999Y-93260500D02*
X180282001Y-93260500D01*
G75*
G02*
X180532000Y-93510499I0J-249999D01*
G01*
X180532000Y-94035501D01*
G75*
G02*
X180282001Y-94285500I-249999J0D01*
G01*
X179381999Y-94285500D01*
G75*
G02*
X179132000Y-94035501I0J249999D01*
G01*
X179132000Y-93510499D01*
G75*
G02*
X179381999Y-93260500I249999J0D01*
G01*
G37*
G36*
G01*
X179381999Y-91435500D02*
X180282001Y-91435500D01*
G75*
G02*
X180532000Y-91685499I0J-249999D01*
G01*
X180532000Y-92210501D01*
G75*
G02*
X180282001Y-92460500I-249999J0D01*
G01*
X179381999Y-92460500D01*
G75*
G02*
X179132000Y-92210501I0J249999D01*
G01*
X179132000Y-91685499D01*
G75*
G02*
X179381999Y-91435500I249999J0D01*
G01*
G37*
D23*
X164526000Y-108680000D03*
X165476000Y-106680000D03*
X163576000Y-106680000D03*
D24*
X123510000Y-119238000D03*
X123510000Y-120538000D03*
X125410000Y-119888000D03*
X125410000Y-120538000D03*
X125410000Y-119238000D03*
G36*
G01*
X173860000Y-54389000D02*
X173860000Y-55339000D01*
G75*
G02*
X173610000Y-55589000I-250000J0D01*
G01*
X173110000Y-55589000D01*
G75*
G02*
X172860000Y-55339000I0J250000D01*
G01*
X172860000Y-54389000D01*
G75*
G02*
X173110000Y-54139000I250000J0D01*
G01*
X173610000Y-54139000D01*
G75*
G02*
X173860000Y-54389000I0J-250000D01*
G01*
G37*
G36*
G01*
X175760000Y-54389000D02*
X175760000Y-55339000D01*
G75*
G02*
X175510000Y-55589000I-250000J0D01*
G01*
X175010000Y-55589000D01*
G75*
G02*
X174760000Y-55339000I0J250000D01*
G01*
X174760000Y-54389000D01*
G75*
G02*
X175010000Y-54139000I250000J0D01*
G01*
X175510000Y-54139000D01*
G75*
G02*
X175760000Y-54389000I0J-250000D01*
G01*
G37*
G36*
G01*
X173794000Y-60231000D02*
X173794000Y-61181000D01*
G75*
G02*
X173544000Y-61431000I-250000J0D01*
G01*
X173044000Y-61431000D01*
G75*
G02*
X172794000Y-61181000I0J250000D01*
G01*
X172794000Y-60231000D01*
G75*
G02*
X173044000Y-59981000I250000J0D01*
G01*
X173544000Y-59981000D01*
G75*
G02*
X173794000Y-60231000I0J-250000D01*
G01*
G37*
G36*
G01*
X175694000Y-60231000D02*
X175694000Y-61181000D01*
G75*
G02*
X175444000Y-61431000I-250000J0D01*
G01*
X174944000Y-61431000D01*
G75*
G02*
X174694000Y-61181000I0J250000D01*
G01*
X174694000Y-60231000D01*
G75*
G02*
X174944000Y-59981000I250000J0D01*
G01*
X175444000Y-59981000D01*
G75*
G02*
X175694000Y-60231000I0J-250000D01*
G01*
G37*
D25*
X183546000Y-50546000D03*
G36*
G01*
X178096000Y-51346000D02*
X176996000Y-51346000D01*
G75*
G02*
X176746000Y-51096000I0J250000D01*
G01*
X176746000Y-49996000D01*
G75*
G02*
X176996000Y-49746000I250000J0D01*
G01*
X178096000Y-49746000D01*
G75*
G02*
X178346000Y-49996000I0J-250000D01*
G01*
X178346000Y-51096000D01*
G75*
G02*
X178096000Y-51346000I-250000J0D01*
G01*
G37*
G36*
G01*
X150091000Y-121227000D02*
X150391000Y-121227000D01*
G75*
G02*
X150541000Y-121377000I0J-150000D01*
G01*
X150541000Y-123127000D01*
G75*
G02*
X150391000Y-123277000I-150000J0D01*
G01*
X150091000Y-123277000D01*
G75*
G02*
X149941000Y-123127000I0J150000D01*
G01*
X149941000Y-121377000D01*
G75*
G02*
X150091000Y-121227000I150000J0D01*
G01*
G37*
G36*
G01*
X151361000Y-121227000D02*
X151661000Y-121227000D01*
G75*
G02*
X151811000Y-121377000I0J-150000D01*
G01*
X151811000Y-123127000D01*
G75*
G02*
X151661000Y-123277000I-150000J0D01*
G01*
X151361000Y-123277000D01*
G75*
G02*
X151211000Y-123127000I0J150000D01*
G01*
X151211000Y-121377000D01*
G75*
G02*
X151361000Y-121227000I150000J0D01*
G01*
G37*
G36*
G01*
X152631000Y-121227000D02*
X152931000Y-121227000D01*
G75*
G02*
X153081000Y-121377000I0J-150000D01*
G01*
X153081000Y-123127000D01*
G75*
G02*
X152931000Y-123277000I-150000J0D01*
G01*
X152631000Y-123277000D01*
G75*
G02*
X152481000Y-123127000I0J150000D01*
G01*
X152481000Y-121377000D01*
G75*
G02*
X152631000Y-121227000I150000J0D01*
G01*
G37*
G36*
G01*
X153901000Y-121227000D02*
X154201000Y-121227000D01*
G75*
G02*
X154351000Y-121377000I0J-150000D01*
G01*
X154351000Y-123127000D01*
G75*
G02*
X154201000Y-123277000I-150000J0D01*
G01*
X153901000Y-123277000D01*
G75*
G02*
X153751000Y-123127000I0J150000D01*
G01*
X153751000Y-121377000D01*
G75*
G02*
X153901000Y-121227000I150000J0D01*
G01*
G37*
G36*
G01*
X155171000Y-121227000D02*
X155471000Y-121227000D01*
G75*
G02*
X155621000Y-121377000I0J-150000D01*
G01*
X155621000Y-123127000D01*
G75*
G02*
X155471000Y-123277000I-150000J0D01*
G01*
X155171000Y-123277000D01*
G75*
G02*
X155021000Y-123127000I0J150000D01*
G01*
X155021000Y-121377000D01*
G75*
G02*
X155171000Y-121227000I150000J0D01*
G01*
G37*
G36*
G01*
X156441000Y-121227000D02*
X156741000Y-121227000D01*
G75*
G02*
X156891000Y-121377000I0J-150000D01*
G01*
X156891000Y-123127000D01*
G75*
G02*
X156741000Y-123277000I-150000J0D01*
G01*
X156441000Y-123277000D01*
G75*
G02*
X156291000Y-123127000I0J150000D01*
G01*
X156291000Y-121377000D01*
G75*
G02*
X156441000Y-121227000I150000J0D01*
G01*
G37*
G36*
G01*
X157711000Y-121227000D02*
X158011000Y-121227000D01*
G75*
G02*
X158161000Y-121377000I0J-150000D01*
G01*
X158161000Y-123127000D01*
G75*
G02*
X158011000Y-123277000I-150000J0D01*
G01*
X157711000Y-123277000D01*
G75*
G02*
X157561000Y-123127000I0J150000D01*
G01*
X157561000Y-121377000D01*
G75*
G02*
X157711000Y-121227000I150000J0D01*
G01*
G37*
G36*
G01*
X158981000Y-121227000D02*
X159281000Y-121227000D01*
G75*
G02*
X159431000Y-121377000I0J-150000D01*
G01*
X159431000Y-123127000D01*
G75*
G02*
X159281000Y-123277000I-150000J0D01*
G01*
X158981000Y-123277000D01*
G75*
G02*
X158831000Y-123127000I0J150000D01*
G01*
X158831000Y-121377000D01*
G75*
G02*
X158981000Y-121227000I150000J0D01*
G01*
G37*
G36*
G01*
X158981000Y-111927000D02*
X159281000Y-111927000D01*
G75*
G02*
X159431000Y-112077000I0J-150000D01*
G01*
X159431000Y-113827000D01*
G75*
G02*
X159281000Y-113977000I-150000J0D01*
G01*
X158981000Y-113977000D01*
G75*
G02*
X158831000Y-113827000I0J150000D01*
G01*
X158831000Y-112077000D01*
G75*
G02*
X158981000Y-111927000I150000J0D01*
G01*
G37*
G36*
G01*
X157711000Y-111927000D02*
X158011000Y-111927000D01*
G75*
G02*
X158161000Y-112077000I0J-150000D01*
G01*
X158161000Y-113827000D01*
G75*
G02*
X158011000Y-113977000I-150000J0D01*
G01*
X157711000Y-113977000D01*
G75*
G02*
X157561000Y-113827000I0J150000D01*
G01*
X157561000Y-112077000D01*
G75*
G02*
X157711000Y-111927000I150000J0D01*
G01*
G37*
G36*
G01*
X156441000Y-111927000D02*
X156741000Y-111927000D01*
G75*
G02*
X156891000Y-112077000I0J-150000D01*
G01*
X156891000Y-113827000D01*
G75*
G02*
X156741000Y-113977000I-150000J0D01*
G01*
X156441000Y-113977000D01*
G75*
G02*
X156291000Y-113827000I0J150000D01*
G01*
X156291000Y-112077000D01*
G75*
G02*
X156441000Y-111927000I150000J0D01*
G01*
G37*
G36*
G01*
X155171000Y-111927000D02*
X155471000Y-111927000D01*
G75*
G02*
X155621000Y-112077000I0J-150000D01*
G01*
X155621000Y-113827000D01*
G75*
G02*
X155471000Y-113977000I-150000J0D01*
G01*
X155171000Y-113977000D01*
G75*
G02*
X155021000Y-113827000I0J150000D01*
G01*
X155021000Y-112077000D01*
G75*
G02*
X155171000Y-111927000I150000J0D01*
G01*
G37*
G36*
G01*
X153901000Y-111927000D02*
X154201000Y-111927000D01*
G75*
G02*
X154351000Y-112077000I0J-150000D01*
G01*
X154351000Y-113827000D01*
G75*
G02*
X154201000Y-113977000I-150000J0D01*
G01*
X153901000Y-113977000D01*
G75*
G02*
X153751000Y-113827000I0J150000D01*
G01*
X153751000Y-112077000D01*
G75*
G02*
X153901000Y-111927000I150000J0D01*
G01*
G37*
G36*
G01*
X152631000Y-111927000D02*
X152931000Y-111927000D01*
G75*
G02*
X153081000Y-112077000I0J-150000D01*
G01*
X153081000Y-113827000D01*
G75*
G02*
X152931000Y-113977000I-150000J0D01*
G01*
X152631000Y-113977000D01*
G75*
G02*
X152481000Y-113827000I0J150000D01*
G01*
X152481000Y-112077000D01*
G75*
G02*
X152631000Y-111927000I150000J0D01*
G01*
G37*
G36*
G01*
X151361000Y-111927000D02*
X151661000Y-111927000D01*
G75*
G02*
X151811000Y-112077000I0J-150000D01*
G01*
X151811000Y-113827000D01*
G75*
G02*
X151661000Y-113977000I-150000J0D01*
G01*
X151361000Y-113977000D01*
G75*
G02*
X151211000Y-113827000I0J150000D01*
G01*
X151211000Y-112077000D01*
G75*
G02*
X151361000Y-111927000I150000J0D01*
G01*
G37*
G36*
G01*
X150091000Y-111927000D02*
X150391000Y-111927000D01*
G75*
G02*
X150541000Y-112077000I0J-150000D01*
G01*
X150541000Y-113827000D01*
G75*
G02*
X150391000Y-113977000I-150000J0D01*
G01*
X150091000Y-113977000D01*
G75*
G02*
X149941000Y-113827000I0J150000D01*
G01*
X149941000Y-112077000D01*
G75*
G02*
X150091000Y-111927000I150000J0D01*
G01*
G37*
D26*
X114684000Y-66160000D03*
X113284000Y-73660000D03*
G36*
G01*
X182060001Y-110748500D02*
X181159999Y-110748500D01*
G75*
G02*
X180910000Y-110498501I0J249999D01*
G01*
X180910000Y-109973499D01*
G75*
G02*
X181159999Y-109723500I249999J0D01*
G01*
X182060001Y-109723500D01*
G75*
G02*
X182310000Y-109973499I0J-249999D01*
G01*
X182310000Y-110498501D01*
G75*
G02*
X182060001Y-110748500I-249999J0D01*
G01*
G37*
G36*
G01*
X182060001Y-112573500D02*
X181159999Y-112573500D01*
G75*
G02*
X180910000Y-112323501I0J249999D01*
G01*
X180910000Y-111798499D01*
G75*
G02*
X181159999Y-111548500I249999J0D01*
G01*
X182060001Y-111548500D01*
G75*
G02*
X182310000Y-111798499I0J-249999D01*
G01*
X182310000Y-112323501D01*
G75*
G02*
X182060001Y-112573500I-249999J0D01*
G01*
G37*
G36*
G01*
X184600001Y-110748500D02*
X183699999Y-110748500D01*
G75*
G02*
X183450000Y-110498501I0J249999D01*
G01*
X183450000Y-109973499D01*
G75*
G02*
X183699999Y-109723500I249999J0D01*
G01*
X184600001Y-109723500D01*
G75*
G02*
X184850000Y-109973499I0J-249999D01*
G01*
X184850000Y-110498501D01*
G75*
G02*
X184600001Y-110748500I-249999J0D01*
G01*
G37*
G36*
G01*
X184600001Y-112573500D02*
X183699999Y-112573500D01*
G75*
G02*
X183450000Y-112323501I0J249999D01*
G01*
X183450000Y-111798499D01*
G75*
G02*
X183699999Y-111548500I249999J0D01*
G01*
X184600001Y-111548500D01*
G75*
G02*
X184850000Y-111798499I0J-249999D01*
G01*
X184850000Y-112323501D01*
G75*
G02*
X184600001Y-112573500I-249999J0D01*
G01*
G37*
G36*
G01*
X164088500Y-110801999D02*
X164088500Y-111702001D01*
G75*
G02*
X163838501Y-111952000I-249999J0D01*
G01*
X163313499Y-111952000D01*
G75*
G02*
X163063500Y-111702001I0J249999D01*
G01*
X163063500Y-110801999D01*
G75*
G02*
X163313499Y-110552000I249999J0D01*
G01*
X163838501Y-110552000D01*
G75*
G02*
X164088500Y-110801999I0J-249999D01*
G01*
G37*
G36*
G01*
X165913500Y-110801999D02*
X165913500Y-111702001D01*
G75*
G02*
X165663501Y-111952000I-249999J0D01*
G01*
X165138499Y-111952000D01*
G75*
G02*
X164888500Y-111702001I0J249999D01*
G01*
X164888500Y-110801999D01*
G75*
G02*
X165138499Y-110552000I249999J0D01*
G01*
X165663501Y-110552000D01*
G75*
G02*
X165913500Y-110801999I0J-249999D01*
G01*
G37*
G36*
G01*
X115512001Y-111868000D02*
X114611999Y-111868000D01*
G75*
G02*
X114362000Y-111618001I0J249999D01*
G01*
X114362000Y-111092999D01*
G75*
G02*
X114611999Y-110843000I249999J0D01*
G01*
X115512001Y-110843000D01*
G75*
G02*
X115762000Y-111092999I0J-249999D01*
G01*
X115762000Y-111618001D01*
G75*
G02*
X115512001Y-111868000I-249999J0D01*
G01*
G37*
G36*
G01*
X115512001Y-113693000D02*
X114611999Y-113693000D01*
G75*
G02*
X114362000Y-113443001I0J249999D01*
G01*
X114362000Y-112917999D01*
G75*
G02*
X114611999Y-112668000I249999J0D01*
G01*
X115512001Y-112668000D01*
G75*
G02*
X115762000Y-112917999I0J-249999D01*
G01*
X115762000Y-113443001D01*
G75*
G02*
X115512001Y-113693000I-249999J0D01*
G01*
G37*
G36*
G01*
X164888500Y-114242001D02*
X164888500Y-113341999D01*
G75*
G02*
X165138499Y-113092000I249999J0D01*
G01*
X165663501Y-113092000D01*
G75*
G02*
X165913500Y-113341999I0J-249999D01*
G01*
X165913500Y-114242001D01*
G75*
G02*
X165663501Y-114492000I-249999J0D01*
G01*
X165138499Y-114492000D01*
G75*
G02*
X164888500Y-114242001I0J249999D01*
G01*
G37*
G36*
G01*
X163063500Y-114242001D02*
X163063500Y-113341999D01*
G75*
G02*
X163313499Y-113092000I249999J0D01*
G01*
X163838501Y-113092000D01*
G75*
G02*
X164088500Y-113341999I0J-249999D01*
G01*
X164088500Y-114242001D01*
G75*
G02*
X163838501Y-114492000I-249999J0D01*
G01*
X163313499Y-114492000D01*
G75*
G02*
X163063500Y-114242001I0J249999D01*
G01*
G37*
G36*
G01*
X181868500Y-128835999D02*
X181868500Y-129736001D01*
G75*
G02*
X181618501Y-129986000I-249999J0D01*
G01*
X181093499Y-129986000D01*
G75*
G02*
X180843500Y-129736001I0J249999D01*
G01*
X180843500Y-128835999D01*
G75*
G02*
X181093499Y-128586000I249999J0D01*
G01*
X181618501Y-128586000D01*
G75*
G02*
X181868500Y-128835999I0J-249999D01*
G01*
G37*
G36*
G01*
X183693500Y-128835999D02*
X183693500Y-129736001D01*
G75*
G02*
X183443501Y-129986000I-249999J0D01*
G01*
X182918499Y-129986000D01*
G75*
G02*
X182668500Y-129736001I0J249999D01*
G01*
X182668500Y-128835999D01*
G75*
G02*
X182918499Y-128586000I249999J0D01*
G01*
X183443501Y-128586000D01*
G75*
G02*
X183693500Y-128835999I0J-249999D01*
G01*
G37*
G36*
G01*
X181868500Y-125279999D02*
X181868500Y-126180001D01*
G75*
G02*
X181618501Y-126430000I-249999J0D01*
G01*
X181093499Y-126430000D01*
G75*
G02*
X180843500Y-126180001I0J249999D01*
G01*
X180843500Y-125279999D01*
G75*
G02*
X181093499Y-125030000I249999J0D01*
G01*
X181618501Y-125030000D01*
G75*
G02*
X181868500Y-125279999I0J-249999D01*
G01*
G37*
G36*
G01*
X183693500Y-125279999D02*
X183693500Y-126180001D01*
G75*
G02*
X183443501Y-126430000I-249999J0D01*
G01*
X182918499Y-126430000D01*
G75*
G02*
X182668500Y-126180001I0J249999D01*
G01*
X182668500Y-125279999D01*
G75*
G02*
X182918499Y-125030000I249999J0D01*
G01*
X183443501Y-125030000D01*
G75*
G02*
X183693500Y-125279999I0J-249999D01*
G01*
G37*
G36*
G01*
X181868500Y-121723999D02*
X181868500Y-122624001D01*
G75*
G02*
X181618501Y-122874000I-249999J0D01*
G01*
X181093499Y-122874000D01*
G75*
G02*
X180843500Y-122624001I0J249999D01*
G01*
X180843500Y-121723999D01*
G75*
G02*
X181093499Y-121474000I249999J0D01*
G01*
X181618501Y-121474000D01*
G75*
G02*
X181868500Y-121723999I0J-249999D01*
G01*
G37*
G36*
G01*
X183693500Y-121723999D02*
X183693500Y-122624001D01*
G75*
G02*
X183443501Y-122874000I-249999J0D01*
G01*
X182918499Y-122874000D01*
G75*
G02*
X182668500Y-122624001I0J249999D01*
G01*
X182668500Y-121723999D01*
G75*
G02*
X182918499Y-121474000I249999J0D01*
G01*
X183443501Y-121474000D01*
G75*
G02*
X183693500Y-121723999I0J-249999D01*
G01*
G37*
G36*
G01*
X184192500Y-91128001D02*
X184192500Y-90227999D01*
G75*
G02*
X184442499Y-89978000I249999J0D01*
G01*
X184967501Y-89978000D01*
G75*
G02*
X185217500Y-90227999I0J-249999D01*
G01*
X185217500Y-91128001D01*
G75*
G02*
X184967501Y-91378000I-249999J0D01*
G01*
X184442499Y-91378000D01*
G75*
G02*
X184192500Y-91128001I0J249999D01*
G01*
G37*
G36*
G01*
X182367500Y-91128001D02*
X182367500Y-90227999D01*
G75*
G02*
X182617499Y-89978000I249999J0D01*
G01*
X183142501Y-89978000D01*
G75*
G02*
X183392500Y-90227999I0J-249999D01*
G01*
X183392500Y-91128001D01*
G75*
G02*
X183142501Y-91378000I-249999J0D01*
G01*
X182617499Y-91378000D01*
G75*
G02*
X182367500Y-91128001I0J249999D01*
G01*
G37*
G36*
G01*
X184145500Y-101288001D02*
X184145500Y-100387999D01*
G75*
G02*
X184395499Y-100138000I249999J0D01*
G01*
X184920501Y-100138000D01*
G75*
G02*
X185170500Y-100387999I0J-249999D01*
G01*
X185170500Y-101288001D01*
G75*
G02*
X184920501Y-101538000I-249999J0D01*
G01*
X184395499Y-101538000D01*
G75*
G02*
X184145500Y-101288001I0J249999D01*
G01*
G37*
G36*
G01*
X182320500Y-101288001D02*
X182320500Y-100387999D01*
G75*
G02*
X182570499Y-100138000I249999J0D01*
G01*
X183095501Y-100138000D01*
G75*
G02*
X183345500Y-100387999I0J-249999D01*
G01*
X183345500Y-101288001D01*
G75*
G02*
X183095501Y-101538000I-249999J0D01*
G01*
X182570499Y-101538000D01*
G75*
G02*
X182320500Y-101288001I0J249999D01*
G01*
G37*
G36*
G01*
X124836500Y-117544001D02*
X124836500Y-116643999D01*
G75*
G02*
X125086499Y-116394000I249999J0D01*
G01*
X125611501Y-116394000D01*
G75*
G02*
X125861500Y-116643999I0J-249999D01*
G01*
X125861500Y-117544001D01*
G75*
G02*
X125611501Y-117794000I-249999J0D01*
G01*
X125086499Y-117794000D01*
G75*
G02*
X124836500Y-117544001I0J249999D01*
G01*
G37*
G36*
G01*
X123011500Y-117544001D02*
X123011500Y-116643999D01*
G75*
G02*
X123261499Y-116394000I249999J0D01*
G01*
X123786501Y-116394000D01*
G75*
G02*
X124036500Y-116643999I0J-249999D01*
G01*
X124036500Y-117544001D01*
G75*
G02*
X123786501Y-117794000I-249999J0D01*
G01*
X123261499Y-117794000D01*
G75*
G02*
X123011500Y-117544001I0J249999D01*
G01*
G37*
G36*
G01*
X124060000Y-122231999D02*
X124060000Y-123132001D01*
G75*
G02*
X123810001Y-123382000I-249999J0D01*
G01*
X123284999Y-123382000D01*
G75*
G02*
X123035000Y-123132001I0J249999D01*
G01*
X123035000Y-122231999D01*
G75*
G02*
X123284999Y-121982000I249999J0D01*
G01*
X123810001Y-121982000D01*
G75*
G02*
X124060000Y-122231999I0J-249999D01*
G01*
G37*
G36*
G01*
X125885000Y-122231999D02*
X125885000Y-123132001D01*
G75*
G02*
X125635001Y-123382000I-249999J0D01*
G01*
X125109999Y-123382000D01*
G75*
G02*
X124860000Y-123132001I0J249999D01*
G01*
X124860000Y-122231999D01*
G75*
G02*
X125109999Y-121982000I249999J0D01*
G01*
X125635001Y-121982000D01*
G75*
G02*
X125885000Y-122231999I0J-249999D01*
G01*
G37*
G36*
G01*
X124036500Y-124263999D02*
X124036500Y-125164001D01*
G75*
G02*
X123786501Y-125414000I-249999J0D01*
G01*
X123261499Y-125414000D01*
G75*
G02*
X123011500Y-125164001I0J249999D01*
G01*
X123011500Y-124263999D01*
G75*
G02*
X123261499Y-124014000I249999J0D01*
G01*
X123786501Y-124014000D01*
G75*
G02*
X124036500Y-124263999I0J-249999D01*
G01*
G37*
G36*
G01*
X125861500Y-124263999D02*
X125861500Y-125164001D01*
G75*
G02*
X125611501Y-125414000I-249999J0D01*
G01*
X125086499Y-125414000D01*
G75*
G02*
X124836500Y-125164001I0J249999D01*
G01*
X124836500Y-124263999D01*
G75*
G02*
X125086499Y-124014000I249999J0D01*
G01*
X125611501Y-124014000D01*
G75*
G02*
X125861500Y-124263999I0J-249999D01*
G01*
G37*
G36*
G01*
X176422000Y-129736001D02*
X176422000Y-128835999D01*
G75*
G02*
X176671999Y-128586000I249999J0D01*
G01*
X177197001Y-128586000D01*
G75*
G02*
X177447000Y-128835999I0J-249999D01*
G01*
X177447000Y-129736001D01*
G75*
G02*
X177197001Y-129986000I-249999J0D01*
G01*
X176671999Y-129986000D01*
G75*
G02*
X176422000Y-129736001I0J249999D01*
G01*
G37*
G36*
G01*
X174597000Y-129736001D02*
X174597000Y-128835999D01*
G75*
G02*
X174846999Y-128586000I249999J0D01*
G01*
X175372001Y-128586000D01*
G75*
G02*
X175622000Y-128835999I0J-249999D01*
G01*
X175622000Y-129736001D01*
G75*
G02*
X175372001Y-129986000I-249999J0D01*
G01*
X174846999Y-129986000D01*
G75*
G02*
X174597000Y-129736001I0J249999D01*
G01*
G37*
G36*
G01*
X176422000Y-126180001D02*
X176422000Y-125279999D01*
G75*
G02*
X176671999Y-125030000I249999J0D01*
G01*
X177197001Y-125030000D01*
G75*
G02*
X177447000Y-125279999I0J-249999D01*
G01*
X177447000Y-126180001D01*
G75*
G02*
X177197001Y-126430000I-249999J0D01*
G01*
X176671999Y-126430000D01*
G75*
G02*
X176422000Y-126180001I0J249999D01*
G01*
G37*
G36*
G01*
X174597000Y-126180001D02*
X174597000Y-125279999D01*
G75*
G02*
X174846999Y-125030000I249999J0D01*
G01*
X175372001Y-125030000D01*
G75*
G02*
X175622000Y-125279999I0J-249999D01*
G01*
X175622000Y-126180001D01*
G75*
G02*
X175372001Y-126430000I-249999J0D01*
G01*
X174846999Y-126430000D01*
G75*
G02*
X174597000Y-126180001I0J249999D01*
G01*
G37*
G36*
G01*
X176422000Y-122624001D02*
X176422000Y-121723999D01*
G75*
G02*
X176671999Y-121474000I249999J0D01*
G01*
X177197001Y-121474000D01*
G75*
G02*
X177447000Y-121723999I0J-249999D01*
G01*
X177447000Y-122624001D01*
G75*
G02*
X177197001Y-122874000I-249999J0D01*
G01*
X176671999Y-122874000D01*
G75*
G02*
X176422000Y-122624001I0J249999D01*
G01*
G37*
G36*
G01*
X174597000Y-122624001D02*
X174597000Y-121723999D01*
G75*
G02*
X174846999Y-121474000I249999J0D01*
G01*
X175372001Y-121474000D01*
G75*
G02*
X175622000Y-121723999I0J-249999D01*
G01*
X175622000Y-122624001D01*
G75*
G02*
X175372001Y-122874000I-249999J0D01*
G01*
X174846999Y-122874000D01*
G75*
G02*
X174597000Y-122624001I0J249999D01*
G01*
G37*
G36*
G01*
X184192500Y-96208001D02*
X184192500Y-95307999D01*
G75*
G02*
X184442499Y-95058000I249999J0D01*
G01*
X184967501Y-95058000D01*
G75*
G02*
X185217500Y-95307999I0J-249999D01*
G01*
X185217500Y-96208001D01*
G75*
G02*
X184967501Y-96458000I-249999J0D01*
G01*
X184442499Y-96458000D01*
G75*
G02*
X184192500Y-96208001I0J249999D01*
G01*
G37*
G36*
G01*
X182367500Y-96208001D02*
X182367500Y-95307999D01*
G75*
G02*
X182617499Y-95058000I249999J0D01*
G01*
X183142501Y-95058000D01*
G75*
G02*
X183392500Y-95307999I0J-249999D01*
G01*
X183392500Y-96208001D01*
G75*
G02*
X183142501Y-96458000I-249999J0D01*
G01*
X182617499Y-96458000D01*
G75*
G02*
X182367500Y-96208001I0J249999D01*
G01*
G37*
G36*
G01*
X184145500Y-106368001D02*
X184145500Y-105467999D01*
G75*
G02*
X184395499Y-105218000I249999J0D01*
G01*
X184920501Y-105218000D01*
G75*
G02*
X185170500Y-105467999I0J-249999D01*
G01*
X185170500Y-106368001D01*
G75*
G02*
X184920501Y-106618000I-249999J0D01*
G01*
X184395499Y-106618000D01*
G75*
G02*
X184145500Y-106368001I0J249999D01*
G01*
G37*
G36*
G01*
X182320500Y-106368001D02*
X182320500Y-105467999D01*
G75*
G02*
X182570499Y-105218000I249999J0D01*
G01*
X183095501Y-105218000D01*
G75*
G02*
X183345500Y-105467999I0J-249999D01*
G01*
X183345500Y-106368001D01*
G75*
G02*
X183095501Y-106618000I-249999J0D01*
G01*
X182570499Y-106618000D01*
G75*
G02*
X182320500Y-106368001I0J249999D01*
G01*
G37*
G36*
G01*
X151642500Y-139503999D02*
X151642500Y-140404001D01*
G75*
G02*
X151392501Y-140654000I-249999J0D01*
G01*
X150867499Y-140654000D01*
G75*
G02*
X150617500Y-140404001I0J249999D01*
G01*
X150617500Y-139503999D01*
G75*
G02*
X150867499Y-139254000I249999J0D01*
G01*
X151392501Y-139254000D01*
G75*
G02*
X151642500Y-139503999I0J-249999D01*
G01*
G37*
G36*
G01*
X153467500Y-139503999D02*
X153467500Y-140404001D01*
G75*
G02*
X153217501Y-140654000I-249999J0D01*
G01*
X152692499Y-140654000D01*
G75*
G02*
X152442500Y-140404001I0J249999D01*
G01*
X152442500Y-139503999D01*
G75*
G02*
X152692499Y-139254000I249999J0D01*
G01*
X153217501Y-139254000D01*
G75*
G02*
X153467500Y-139503999I0J-249999D01*
G01*
G37*
G36*
G01*
X152442500Y-138372001D02*
X152442500Y-137471999D01*
G75*
G02*
X152692499Y-137222000I249999J0D01*
G01*
X153217501Y-137222000D01*
G75*
G02*
X153467500Y-137471999I0J-249999D01*
G01*
X153467500Y-138372001D01*
G75*
G02*
X153217501Y-138622000I-249999J0D01*
G01*
X152692499Y-138622000D01*
G75*
G02*
X152442500Y-138372001I0J249999D01*
G01*
G37*
G36*
G01*
X150617500Y-138372001D02*
X150617500Y-137471999D01*
G75*
G02*
X150867499Y-137222000I249999J0D01*
G01*
X151392501Y-137222000D01*
G75*
G02*
X151642500Y-137471999I0J-249999D01*
G01*
X151642500Y-138372001D01*
G75*
G02*
X151392501Y-138622000I-249999J0D01*
G01*
X150867499Y-138622000D01*
G75*
G02*
X150617500Y-138372001I0J249999D01*
G01*
G37*
D27*
X105918000Y-72564000D03*
G36*
G01*
X104368000Y-66564000D02*
X107468000Y-66564000D01*
G75*
G02*
X107718000Y-66814000I0J-250000D01*
G01*
X107718000Y-68314000D01*
G75*
G02*
X107468000Y-68564000I-250000J0D01*
G01*
X104368000Y-68564000D01*
G75*
G02*
X104118000Y-68314000I0J250000D01*
G01*
X104118000Y-66814000D01*
G75*
G02*
X104368000Y-66564000I250000J0D01*
G01*
G37*
D18*
X173736000Y-146304000D03*
X173736000Y-143764000D03*
X176276000Y-146304000D03*
X176276000Y-143764000D03*
X178816000Y-146304000D03*
X178816000Y-143764000D03*
X181356000Y-146304000D03*
X181356000Y-143764000D03*
X183896000Y-146304000D03*
D19*
X183896000Y-143764000D03*
D18*
X178816000Y-138684000D03*
X178816000Y-136144000D03*
X181356000Y-138684000D03*
X181356000Y-136144000D03*
X183896000Y-138684000D03*
D19*
X183896000Y-136144000D03*
D18*
X193012000Y-110998000D03*
X190472000Y-110998000D03*
D19*
X187932000Y-110998000D03*
D18*
X190754000Y-131826000D03*
X193294000Y-131826000D03*
X190754000Y-129286000D03*
X193294000Y-129286000D03*
X190754000Y-126746000D03*
X193294000Y-126746000D03*
X190754000Y-124206000D03*
D19*
X193294000Y-124206000D03*
D18*
X193012000Y-100838000D03*
X190472000Y-100838000D03*
D19*
X187932000Y-100838000D03*
D18*
X193012000Y-95758000D03*
X190472000Y-95758000D03*
D19*
X187932000Y-95758000D03*
D18*
X193012000Y-105918000D03*
X190472000Y-105918000D03*
D19*
X187932000Y-105918000D03*
D18*
X118364000Y-144780000D03*
X115824000Y-144780000D03*
X118364000Y-142240000D03*
X115824000Y-142240000D03*
X118364000Y-139700000D03*
X115824000Y-139700000D03*
X118364000Y-137160000D03*
X115824000Y-137160000D03*
X118364000Y-134620000D03*
D19*
X115824000Y-134620000D03*
D18*
X190754000Y-116332000D03*
D19*
X193294000Y-116332000D03*
D28*
X114688000Y-58420000D03*
X112888000Y-53320000D03*
G36*
G01*
X151696000Y-135415000D02*
X151696000Y-136365000D01*
G75*
G02*
X151446000Y-136615000I-250000J0D01*
G01*
X150946000Y-136615000D01*
G75*
G02*
X150696000Y-136365000I0J250000D01*
G01*
X150696000Y-135415000D01*
G75*
G02*
X150946000Y-135165000I250000J0D01*
G01*
X151446000Y-135165000D01*
G75*
G02*
X151696000Y-135415000I0J-250000D01*
G01*
G37*
G36*
G01*
X153596000Y-135415000D02*
X153596000Y-136365000D01*
G75*
G02*
X153346000Y-136615000I-250000J0D01*
G01*
X152846000Y-136615000D01*
G75*
G02*
X152596000Y-136365000I0J250000D01*
G01*
X152596000Y-135415000D01*
G75*
G02*
X152846000Y-135165000I250000J0D01*
G01*
X153346000Y-135165000D01*
G75*
G02*
X153596000Y-135415000I0J-250000D01*
G01*
G37*
G36*
G01*
X151696000Y-133383000D02*
X151696000Y-134333000D01*
G75*
G02*
X151446000Y-134583000I-250000J0D01*
G01*
X150946000Y-134583000D01*
G75*
G02*
X150696000Y-134333000I0J250000D01*
G01*
X150696000Y-133383000D01*
G75*
G02*
X150946000Y-133133000I250000J0D01*
G01*
X151446000Y-133133000D01*
G75*
G02*
X151696000Y-133383000I0J-250000D01*
G01*
G37*
G36*
G01*
X153596000Y-133383000D02*
X153596000Y-134333000D01*
G75*
G02*
X153346000Y-134583000I-250000J0D01*
G01*
X152846000Y-134583000D01*
G75*
G02*
X152596000Y-134333000I0J250000D01*
G01*
X152596000Y-133383000D01*
G75*
G02*
X152846000Y-133133000I250000J0D01*
G01*
X153346000Y-133133000D01*
G75*
G02*
X153596000Y-133383000I0J-250000D01*
G01*
G37*
G36*
G01*
X158626000Y-89883000D02*
X158626000Y-88933000D01*
G75*
G02*
X158876000Y-88683000I250000J0D01*
G01*
X159376000Y-88683000D01*
G75*
G02*
X159626000Y-88933000I0J-250000D01*
G01*
X159626000Y-89883000D01*
G75*
G02*
X159376000Y-90133000I-250000J0D01*
G01*
X158876000Y-90133000D01*
G75*
G02*
X158626000Y-89883000I0J250000D01*
G01*
G37*
G36*
G01*
X156726000Y-89883000D02*
X156726000Y-88933000D01*
G75*
G02*
X156976000Y-88683000I250000J0D01*
G01*
X157476000Y-88683000D01*
G75*
G02*
X157726000Y-88933000I0J-250000D01*
G01*
X157726000Y-89883000D01*
G75*
G02*
X157476000Y-90133000I-250000J0D01*
G01*
X156976000Y-90133000D01*
G75*
G02*
X156726000Y-89883000I0J250000D01*
G01*
G37*
G36*
G01*
X115029000Y-124518000D02*
X114079000Y-124518000D01*
G75*
G02*
X113829000Y-124268000I0J250000D01*
G01*
X113829000Y-123768000D01*
G75*
G02*
X114079000Y-123518000I250000J0D01*
G01*
X115029000Y-123518000D01*
G75*
G02*
X115279000Y-123768000I0J-250000D01*
G01*
X115279000Y-124268000D01*
G75*
G02*
X115029000Y-124518000I-250000J0D01*
G01*
G37*
G36*
G01*
X115029000Y-126418000D02*
X114079000Y-126418000D01*
G75*
G02*
X113829000Y-126168000I0J250000D01*
G01*
X113829000Y-125668000D01*
G75*
G02*
X114079000Y-125418000I250000J0D01*
G01*
X115029000Y-125418000D01*
G75*
G02*
X115279000Y-125668000I0J-250000D01*
G01*
X115279000Y-126168000D01*
G75*
G02*
X115029000Y-126418000I-250000J0D01*
G01*
G37*
G36*
G01*
X192662000Y-120617000D02*
X192662000Y-119667000D01*
G75*
G02*
X192912000Y-119417000I250000J0D01*
G01*
X193412000Y-119417000D01*
G75*
G02*
X193662000Y-119667000I0J-250000D01*
G01*
X193662000Y-120617000D01*
G75*
G02*
X193412000Y-120867000I-250000J0D01*
G01*
X192912000Y-120867000D01*
G75*
G02*
X192662000Y-120617000I0J250000D01*
G01*
G37*
G36*
G01*
X190762000Y-120617000D02*
X190762000Y-119667000D01*
G75*
G02*
X191012000Y-119417000I250000J0D01*
G01*
X191512000Y-119417000D01*
G75*
G02*
X191762000Y-119667000I0J-250000D01*
G01*
X191762000Y-120617000D01*
G75*
G02*
X191512000Y-120867000I-250000J0D01*
G01*
X191012000Y-120867000D01*
G75*
G02*
X190762000Y-120617000I0J250000D01*
G01*
G37*
D29*
X157000000Y-106660000D03*
D30*
X157000000Y-99060000D03*
D12*
X169124000Y-102860000D03*
D31*
X172974000Y-113030000D03*
M02*
