%TF.GenerationSoftware,KiCad,Pcbnew,5.1.10-88a1d61d58~90~ubuntu20.04.1*%
%TF.CreationDate,2021-10-12T23:05:44+03:00*%
%TF.ProjectId,Schematic,53636865-6d61-4746-9963-2e6b69636164,rev?*%
%TF.SameCoordinates,Original*%
%TF.FileFunction,Paste,Top*%
%TF.FilePolarity,Positive*%
%FSLAX46Y46*%
G04 Gerber Fmt 4.6, Leading zero omitted, Abs format (unit mm)*
G04 Created by KiCad (PCBNEW 5.1.10-88a1d61d58~90~ubuntu20.04.1) date 2021-10-12 23:05:44*
%MOMM*%
%LPD*%
G01*
G04 APERTURE LIST*
%ADD10R,1.800000X1.300000*%
%ADD11R,1.200000X0.900000*%
%ADD12R,1.500000X0.900000*%
%ADD13R,0.900000X1.500000*%
%ADD14R,4.100000X4.100000*%
%ADD15R,0.600000X0.700000*%
%ADD16R,0.650000X0.400000*%
%ADD17R,4.550000X5.250000*%
%ADD18R,4.600000X1.100000*%
%ADD19R,0.800000X0.900000*%
%ADD20R,0.400000X0.650000*%
%ADD21R,1.700000X1.300000*%
%ADD22R,3.050000X2.750000*%
%ADD23R,2.200000X1.200000*%
%ADD24R,2.600000X0.700000*%
%ADD25R,0.700000X2.600000*%
G04 APERTURE END LIST*
D10*
X183986000Y-62992000D03*
X183986000Y-74592000D03*
X192786000Y-62992000D03*
D11*
X179830000Y-65452000D03*
X179830000Y-66722000D03*
X179830000Y-67992000D03*
X179830000Y-69262000D03*
X179830000Y-70532000D03*
X179830000Y-71802000D03*
D10*
X192786000Y-74592000D03*
D12*
X154929000Y-140807000D03*
X154929000Y-119807000D03*
X154929000Y-118307000D03*
D13*
X153054000Y-117557000D03*
X151554000Y-117557000D03*
X150054000Y-117557000D03*
X148554000Y-117557000D03*
X147054000Y-117557000D03*
X145554000Y-117557000D03*
X144054000Y-117557000D03*
X142554000Y-117557000D03*
D12*
X154929000Y-139307000D03*
X154929000Y-137807000D03*
X154929000Y-136307000D03*
X154929000Y-134807000D03*
X154929000Y-133307000D03*
X154929000Y-131807000D03*
X154929000Y-130307000D03*
X154929000Y-128807000D03*
X154929000Y-127307000D03*
X154929000Y-125807000D03*
X154929000Y-124307000D03*
X154929000Y-122807000D03*
X154929000Y-121307000D03*
X137679000Y-134707000D03*
X137679000Y-133207000D03*
X137679000Y-131707000D03*
X137679000Y-130207000D03*
X137679000Y-128707000D03*
X137679000Y-127207000D03*
X137679000Y-125707000D03*
X137679000Y-124207000D03*
X137679000Y-122707000D03*
X137679000Y-121207000D03*
X137679000Y-119707000D03*
X137679000Y-118207000D03*
D13*
X139554000Y-117557000D03*
X141054000Y-117557000D03*
D12*
X137679000Y-136207000D03*
X137679000Y-137807000D03*
X137679000Y-139307000D03*
X137679000Y-140707000D03*
D14*
X147494000Y-132767000D03*
G36*
G01*
X160036000Y-70536000D02*
X162036000Y-70536000D01*
G75*
G02*
X162286000Y-70786000I0J-250000D01*
G01*
X162286000Y-73786000D01*
G75*
G02*
X162036000Y-74036000I-250000J0D01*
G01*
X160036000Y-74036000D01*
G75*
G02*
X159786000Y-73786000I0J250000D01*
G01*
X159786000Y-70786000D01*
G75*
G02*
X160036000Y-70536000I250000J0D01*
G01*
G37*
G36*
G01*
X160036000Y-64036000D02*
X162036000Y-64036000D01*
G75*
G02*
X162286000Y-64286000I0J-250000D01*
G01*
X162286000Y-67286000D01*
G75*
G02*
X162036000Y-67536000I-250000J0D01*
G01*
X160036000Y-67536000D01*
G75*
G02*
X159786000Y-67286000I0J250000D01*
G01*
X159786000Y-64286000D01*
G75*
G02*
X160036000Y-64036000I250000J0D01*
G01*
G37*
G36*
G01*
X176146000Y-66073000D02*
X176146000Y-67023000D01*
G75*
G02*
X175896000Y-67273000I-250000J0D01*
G01*
X175396000Y-67273000D01*
G75*
G02*
X175146000Y-67023000I0J250000D01*
G01*
X175146000Y-66073000D01*
G75*
G02*
X175396000Y-65823000I250000J0D01*
G01*
X175896000Y-65823000D01*
G75*
G02*
X176146000Y-66073000I0J-250000D01*
G01*
G37*
G36*
G01*
X178046000Y-66073000D02*
X178046000Y-67023000D01*
G75*
G02*
X177796000Y-67273000I-250000J0D01*
G01*
X177296000Y-67273000D01*
G75*
G02*
X177046000Y-67023000I0J250000D01*
G01*
X177046000Y-66073000D01*
G75*
G02*
X177296000Y-65823000I250000J0D01*
G01*
X177796000Y-65823000D01*
G75*
G02*
X178046000Y-66073000I0J-250000D01*
G01*
G37*
D15*
X168848000Y-70104000D03*
X167448000Y-70104000D03*
X171896000Y-70104000D03*
X170496000Y-70104000D03*
D16*
X172908000Y-139558000D03*
X172908000Y-140858000D03*
X171008000Y-140208000D03*
X171008000Y-140858000D03*
X171008000Y-139558000D03*
D17*
X146050000Y-64789000D03*
X141200000Y-70339000D03*
X146050000Y-70339000D03*
X141200000Y-64789000D03*
D18*
X152775000Y-64164000D03*
X152775000Y-65864000D03*
X152775000Y-67564000D03*
X152775000Y-69264000D03*
X152775000Y-70964000D03*
G36*
G01*
X171699500Y-77158001D02*
X171699500Y-76257999D01*
G75*
G02*
X171949499Y-76008000I249999J0D01*
G01*
X172474501Y-76008000D01*
G75*
G02*
X172724500Y-76257999I0J-249999D01*
G01*
X172724500Y-77158001D01*
G75*
G02*
X172474501Y-77408000I-249999J0D01*
G01*
X171949499Y-77408000D01*
G75*
G02*
X171699500Y-77158001I0J249999D01*
G01*
G37*
G36*
G01*
X169874500Y-77158001D02*
X169874500Y-76257999D01*
G75*
G02*
X170124499Y-76008000I249999J0D01*
G01*
X170649501Y-76008000D01*
G75*
G02*
X170899500Y-76257999I0J-249999D01*
G01*
X170899500Y-77158001D01*
G75*
G02*
X170649501Y-77408000I-249999J0D01*
G01*
X170124499Y-77408000D01*
G75*
G02*
X169874500Y-77158001I0J249999D01*
G01*
G37*
G36*
G01*
X171746500Y-73856001D02*
X171746500Y-72955999D01*
G75*
G02*
X171996499Y-72706000I249999J0D01*
G01*
X172521501Y-72706000D01*
G75*
G02*
X172771500Y-72955999I0J-249999D01*
G01*
X172771500Y-73856001D01*
G75*
G02*
X172521501Y-74106000I-249999J0D01*
G01*
X171996499Y-74106000D01*
G75*
G02*
X171746500Y-73856001I0J249999D01*
G01*
G37*
G36*
G01*
X169921500Y-73856001D02*
X169921500Y-72955999D01*
G75*
G02*
X170171499Y-72706000I249999J0D01*
G01*
X170696501Y-72706000D01*
G75*
G02*
X170946500Y-72955999I0J-249999D01*
G01*
X170946500Y-73856001D01*
G75*
G02*
X170696501Y-74106000I-249999J0D01*
G01*
X170171499Y-74106000D01*
G75*
G02*
X169921500Y-73856001I0J249999D01*
G01*
G37*
G36*
G01*
X180790001Y-59393500D02*
X179889999Y-59393500D01*
G75*
G02*
X179640000Y-59143501I0J249999D01*
G01*
X179640000Y-58618499D01*
G75*
G02*
X179889999Y-58368500I249999J0D01*
G01*
X180790001Y-58368500D01*
G75*
G02*
X181040000Y-58618499I0J-249999D01*
G01*
X181040000Y-59143501D01*
G75*
G02*
X180790001Y-59393500I-249999J0D01*
G01*
G37*
G36*
G01*
X180790001Y-61218500D02*
X179889999Y-61218500D01*
G75*
G02*
X179640000Y-60968501I0J249999D01*
G01*
X179640000Y-60443499D01*
G75*
G02*
X179889999Y-60193500I249999J0D01*
G01*
X180790001Y-60193500D01*
G75*
G02*
X181040000Y-60443499I0J-249999D01*
G01*
X181040000Y-60968501D01*
G75*
G02*
X180790001Y-61218500I-249999J0D01*
G01*
G37*
G36*
G01*
X183330001Y-59290000D02*
X182429999Y-59290000D01*
G75*
G02*
X182180000Y-59040001I0J249999D01*
G01*
X182180000Y-58514999D01*
G75*
G02*
X182429999Y-58265000I249999J0D01*
G01*
X183330001Y-58265000D01*
G75*
G02*
X183580000Y-58514999I0J-249999D01*
G01*
X183580000Y-59040001D01*
G75*
G02*
X183330001Y-59290000I-249999J0D01*
G01*
G37*
G36*
G01*
X183330001Y-61115000D02*
X182429999Y-61115000D01*
G75*
G02*
X182180000Y-60865001I0J249999D01*
G01*
X182180000Y-60339999D01*
G75*
G02*
X182429999Y-60090000I249999J0D01*
G01*
X183330001Y-60090000D01*
G75*
G02*
X183580000Y-60339999I0J-249999D01*
G01*
X183580000Y-60865001D01*
G75*
G02*
X183330001Y-61115000I-249999J0D01*
G01*
G37*
G36*
G01*
X170946500Y-79559999D02*
X170946500Y-80460001D01*
G75*
G02*
X170696501Y-80710000I-249999J0D01*
G01*
X170171499Y-80710000D01*
G75*
G02*
X169921500Y-80460001I0J249999D01*
G01*
X169921500Y-79559999D01*
G75*
G02*
X170171499Y-79310000I249999J0D01*
G01*
X170696501Y-79310000D01*
G75*
G02*
X170946500Y-79559999I0J-249999D01*
G01*
G37*
G36*
G01*
X172771500Y-79559999D02*
X172771500Y-80460001D01*
G75*
G02*
X172521501Y-80710000I-249999J0D01*
G01*
X171996499Y-80710000D01*
G75*
G02*
X171746500Y-80460001I0J249999D01*
G01*
X171746500Y-79559999D01*
G75*
G02*
X171996499Y-79310000I249999J0D01*
G01*
X172521501Y-79310000D01*
G75*
G02*
X172771500Y-79559999I0J-249999D01*
G01*
G37*
G36*
G01*
X178504001Y-59393500D02*
X177603999Y-59393500D01*
G75*
G02*
X177354000Y-59143501I0J249999D01*
G01*
X177354000Y-58618499D01*
G75*
G02*
X177603999Y-58368500I249999J0D01*
G01*
X178504001Y-58368500D01*
G75*
G02*
X178754000Y-58618499I0J-249999D01*
G01*
X178754000Y-59143501D01*
G75*
G02*
X178504001Y-59393500I-249999J0D01*
G01*
G37*
G36*
G01*
X178504001Y-61218500D02*
X177603999Y-61218500D01*
G75*
G02*
X177354000Y-60968501I0J249999D01*
G01*
X177354000Y-60443499D01*
G75*
G02*
X177603999Y-60193500I249999J0D01*
G01*
X178504001Y-60193500D01*
G75*
G02*
X178754000Y-60443499I0J-249999D01*
G01*
X178754000Y-60968501D01*
G75*
G02*
X178504001Y-61218500I-249999J0D01*
G01*
G37*
G36*
G01*
X189680001Y-77427500D02*
X188779999Y-77427500D01*
G75*
G02*
X188530000Y-77177501I0J249999D01*
G01*
X188530000Y-76652499D01*
G75*
G02*
X188779999Y-76402500I249999J0D01*
G01*
X189680001Y-76402500D01*
G75*
G02*
X189930000Y-76652499I0J-249999D01*
G01*
X189930000Y-77177501D01*
G75*
G02*
X189680001Y-77427500I-249999J0D01*
G01*
G37*
G36*
G01*
X189680001Y-79252500D02*
X188779999Y-79252500D01*
G75*
G02*
X188530000Y-79002501I0J249999D01*
G01*
X188530000Y-78477499D01*
G75*
G02*
X188779999Y-78227500I249999J0D01*
G01*
X189680001Y-78227500D01*
G75*
G02*
X189930000Y-78477499I0J-249999D01*
G01*
X189930000Y-79002501D01*
G75*
G02*
X189680001Y-79252500I-249999J0D01*
G01*
G37*
G36*
G01*
X185616001Y-77427500D02*
X184715999Y-77427500D01*
G75*
G02*
X184466000Y-77177501I0J249999D01*
G01*
X184466000Y-76652499D01*
G75*
G02*
X184715999Y-76402500I249999J0D01*
G01*
X185616001Y-76402500D01*
G75*
G02*
X185866000Y-76652499I0J-249999D01*
G01*
X185866000Y-77177501D01*
G75*
G02*
X185616001Y-77427500I-249999J0D01*
G01*
G37*
G36*
G01*
X185616001Y-79252500D02*
X184715999Y-79252500D01*
G75*
G02*
X184466000Y-79002501I0J249999D01*
G01*
X184466000Y-78477499D01*
G75*
G02*
X184715999Y-78227500I249999J0D01*
G01*
X185616001Y-78227500D01*
G75*
G02*
X185866000Y-78477499I0J-249999D01*
G01*
X185866000Y-79002501D01*
G75*
G02*
X185616001Y-79252500I-249999J0D01*
G01*
G37*
G36*
G01*
X187648001Y-77427500D02*
X186747999Y-77427500D01*
G75*
G02*
X186498000Y-77177501I0J249999D01*
G01*
X186498000Y-76652499D01*
G75*
G02*
X186747999Y-76402500I249999J0D01*
G01*
X187648001Y-76402500D01*
G75*
G02*
X187898000Y-76652499I0J-249999D01*
G01*
X187898000Y-77177501D01*
G75*
G02*
X187648001Y-77427500I-249999J0D01*
G01*
G37*
G36*
G01*
X187648001Y-79252500D02*
X186747999Y-79252500D01*
G75*
G02*
X186498000Y-79002501I0J249999D01*
G01*
X186498000Y-78477499D01*
G75*
G02*
X186747999Y-78227500I249999J0D01*
G01*
X187648001Y-78227500D01*
G75*
G02*
X187898000Y-78477499I0J-249999D01*
G01*
X187898000Y-79002501D01*
G75*
G02*
X187648001Y-79252500I-249999J0D01*
G01*
G37*
G36*
G01*
X171050000Y-83115999D02*
X171050000Y-84016001D01*
G75*
G02*
X170800001Y-84266000I-249999J0D01*
G01*
X170274999Y-84266000D01*
G75*
G02*
X170025000Y-84016001I0J249999D01*
G01*
X170025000Y-83115999D01*
G75*
G02*
X170274999Y-82866000I249999J0D01*
G01*
X170800001Y-82866000D01*
G75*
G02*
X171050000Y-83115999I0J-249999D01*
G01*
G37*
G36*
G01*
X172875000Y-83115999D02*
X172875000Y-84016001D01*
G75*
G02*
X172625001Y-84266000I-249999J0D01*
G01*
X172099999Y-84266000D01*
G75*
G02*
X171850000Y-84016001I0J249999D01*
G01*
X171850000Y-83115999D01*
G75*
G02*
X172099999Y-82866000I249999J0D01*
G01*
X172625001Y-82866000D01*
G75*
G02*
X172875000Y-83115999I0J-249999D01*
G01*
G37*
G36*
G01*
X182683999Y-84831500D02*
X183584001Y-84831500D01*
G75*
G02*
X183834000Y-85081499I0J-249999D01*
G01*
X183834000Y-85606501D01*
G75*
G02*
X183584001Y-85856500I-249999J0D01*
G01*
X182683999Y-85856500D01*
G75*
G02*
X182434000Y-85606501I0J249999D01*
G01*
X182434000Y-85081499D01*
G75*
G02*
X182683999Y-84831500I249999J0D01*
G01*
G37*
G36*
G01*
X182683999Y-83006500D02*
X183584001Y-83006500D01*
G75*
G02*
X183834000Y-83256499I0J-249999D01*
G01*
X183834000Y-83781501D01*
G75*
G02*
X183584001Y-84031500I-249999J0D01*
G01*
X182683999Y-84031500D01*
G75*
G02*
X182434000Y-83781501I0J249999D01*
G01*
X182434000Y-83256499D01*
G75*
G02*
X182683999Y-83006500I249999J0D01*
G01*
G37*
G36*
G01*
X179318499Y-84831500D02*
X180218501Y-84831500D01*
G75*
G02*
X180468500Y-85081499I0J-249999D01*
G01*
X180468500Y-85606501D01*
G75*
G02*
X180218501Y-85856500I-249999J0D01*
G01*
X179318499Y-85856500D01*
G75*
G02*
X179068500Y-85606501I0J249999D01*
G01*
X179068500Y-85081499D01*
G75*
G02*
X179318499Y-84831500I249999J0D01*
G01*
G37*
G36*
G01*
X179318499Y-83006500D02*
X180218501Y-83006500D01*
G75*
G02*
X180468500Y-83256499I0J-249999D01*
G01*
X180468500Y-83781501D01*
G75*
G02*
X180218501Y-84031500I-249999J0D01*
G01*
X179318499Y-84031500D01*
G75*
G02*
X179068500Y-83781501I0J249999D01*
G01*
X179068500Y-83256499D01*
G75*
G02*
X179318499Y-83006500I249999J0D01*
G01*
G37*
G36*
G01*
X171050000Y-87687999D02*
X171050000Y-88588001D01*
G75*
G02*
X170800001Y-88838000I-249999J0D01*
G01*
X170274999Y-88838000D01*
G75*
G02*
X170025000Y-88588001I0J249999D01*
G01*
X170025000Y-87687999D01*
G75*
G02*
X170274999Y-87438000I249999J0D01*
G01*
X170800001Y-87438000D01*
G75*
G02*
X171050000Y-87687999I0J-249999D01*
G01*
G37*
G36*
G01*
X172875000Y-87687999D02*
X172875000Y-88588001D01*
G75*
G02*
X172625001Y-88838000I-249999J0D01*
G01*
X172099999Y-88838000D01*
G75*
G02*
X171850000Y-88588001I0J249999D01*
G01*
X171850000Y-87687999D01*
G75*
G02*
X172099999Y-87438000I249999J0D01*
G01*
X172625001Y-87438000D01*
G75*
G02*
X172875000Y-87687999I0J-249999D01*
G01*
G37*
G36*
G01*
X182683999Y-88942500D02*
X183584001Y-88942500D01*
G75*
G02*
X183834000Y-89192499I0J-249999D01*
G01*
X183834000Y-89717501D01*
G75*
G02*
X183584001Y-89967500I-249999J0D01*
G01*
X182683999Y-89967500D01*
G75*
G02*
X182434000Y-89717501I0J249999D01*
G01*
X182434000Y-89192499D01*
G75*
G02*
X182683999Y-88942500I249999J0D01*
G01*
G37*
G36*
G01*
X182683999Y-87117500D02*
X183584001Y-87117500D01*
G75*
G02*
X183834000Y-87367499I0J-249999D01*
G01*
X183834000Y-87892501D01*
G75*
G02*
X183584001Y-88142500I-249999J0D01*
G01*
X182683999Y-88142500D01*
G75*
G02*
X182434000Y-87892501I0J249999D01*
G01*
X182434000Y-87367499D01*
G75*
G02*
X182683999Y-87117500I249999J0D01*
G01*
G37*
G36*
G01*
X179381999Y-93260500D02*
X180282001Y-93260500D01*
G75*
G02*
X180532000Y-93510499I0J-249999D01*
G01*
X180532000Y-94035501D01*
G75*
G02*
X180282001Y-94285500I-249999J0D01*
G01*
X179381999Y-94285500D01*
G75*
G02*
X179132000Y-94035501I0J249999D01*
G01*
X179132000Y-93510499D01*
G75*
G02*
X179381999Y-93260500I249999J0D01*
G01*
G37*
G36*
G01*
X179381999Y-91435500D02*
X180282001Y-91435500D01*
G75*
G02*
X180532000Y-91685499I0J-249999D01*
G01*
X180532000Y-92210501D01*
G75*
G02*
X180282001Y-92460500I-249999J0D01*
G01*
X179381999Y-92460500D01*
G75*
G02*
X179132000Y-92210501I0J249999D01*
G01*
X179132000Y-91685499D01*
G75*
G02*
X179381999Y-91435500I249999J0D01*
G01*
G37*
G36*
G01*
X179318499Y-88942500D02*
X180218501Y-88942500D01*
G75*
G02*
X180468500Y-89192499I0J-249999D01*
G01*
X180468500Y-89717501D01*
G75*
G02*
X180218501Y-89967500I-249999J0D01*
G01*
X179318499Y-89967500D01*
G75*
G02*
X179068500Y-89717501I0J249999D01*
G01*
X179068500Y-89192499D01*
G75*
G02*
X179318499Y-88942500I249999J0D01*
G01*
G37*
G36*
G01*
X179318499Y-87117500D02*
X180218501Y-87117500D01*
G75*
G02*
X180468500Y-87367499I0J-249999D01*
G01*
X180468500Y-87892501D01*
G75*
G02*
X180218501Y-88142500I-249999J0D01*
G01*
X179318499Y-88142500D01*
G75*
G02*
X179068500Y-87892501I0J249999D01*
G01*
X179068500Y-87367499D01*
G75*
G02*
X179318499Y-87117500I249999J0D01*
G01*
G37*
G36*
G01*
X171826500Y-92398001D02*
X171826500Y-91497999D01*
G75*
G02*
X172076499Y-91248000I249999J0D01*
G01*
X172601501Y-91248000D01*
G75*
G02*
X172851500Y-91497999I0J-249999D01*
G01*
X172851500Y-92398001D01*
G75*
G02*
X172601501Y-92648000I-249999J0D01*
G01*
X172076499Y-92648000D01*
G75*
G02*
X171826500Y-92398001I0J249999D01*
G01*
G37*
G36*
G01*
X170001500Y-92398001D02*
X170001500Y-91497999D01*
G75*
G02*
X170251499Y-91248000I249999J0D01*
G01*
X170776501Y-91248000D01*
G75*
G02*
X171026500Y-91497999I0J-249999D01*
G01*
X171026500Y-92398001D01*
G75*
G02*
X170776501Y-92648000I-249999J0D01*
G01*
X170251499Y-92648000D01*
G75*
G02*
X170001500Y-92398001I0J249999D01*
G01*
G37*
G36*
G01*
X156013999Y-60955500D02*
X156914001Y-60955500D01*
G75*
G02*
X157164000Y-61205499I0J-249999D01*
G01*
X157164000Y-61730501D01*
G75*
G02*
X156914001Y-61980500I-249999J0D01*
G01*
X156013999Y-61980500D01*
G75*
G02*
X155764000Y-61730501I0J249999D01*
G01*
X155764000Y-61205499D01*
G75*
G02*
X156013999Y-60955500I249999J0D01*
G01*
G37*
G36*
G01*
X156013999Y-59130500D02*
X156914001Y-59130500D01*
G75*
G02*
X157164000Y-59380499I0J-249999D01*
G01*
X157164000Y-59905501D01*
G75*
G02*
X156914001Y-60155500I-249999J0D01*
G01*
X156013999Y-60155500D01*
G75*
G02*
X155764000Y-59905501I0J249999D01*
G01*
X155764000Y-59380499D01*
G75*
G02*
X156013999Y-59130500I249999J0D01*
G01*
G37*
G36*
G01*
X158299999Y-61002500D02*
X159200001Y-61002500D01*
G75*
G02*
X159450000Y-61252499I0J-249999D01*
G01*
X159450000Y-61777501D01*
G75*
G02*
X159200001Y-62027500I-249999J0D01*
G01*
X158299999Y-62027500D01*
G75*
G02*
X158050000Y-61777501I0J249999D01*
G01*
X158050000Y-61252499D01*
G75*
G02*
X158299999Y-61002500I249999J0D01*
G01*
G37*
G36*
G01*
X158299999Y-59177500D02*
X159200001Y-59177500D01*
G75*
G02*
X159450000Y-59427499I0J-249999D01*
G01*
X159450000Y-59952501D01*
G75*
G02*
X159200001Y-60202500I-249999J0D01*
G01*
X158299999Y-60202500D01*
G75*
G02*
X158050000Y-59952501I0J249999D01*
G01*
X158050000Y-59427499D01*
G75*
G02*
X158299999Y-59177500I249999J0D01*
G01*
G37*
D19*
X175514000Y-85328000D03*
X174564000Y-83328000D03*
X176464000Y-83328000D03*
X175514000Y-89392000D03*
X174564000Y-87392000D03*
X176464000Y-87392000D03*
X175514000Y-93710000D03*
X174564000Y-91710000D03*
X176464000Y-91710000D03*
D20*
X175768000Y-68712000D03*
X177068000Y-68712000D03*
X176418000Y-70612000D03*
X177068000Y-70612000D03*
X175768000Y-70612000D03*
G36*
G01*
X166936000Y-83109750D02*
X166936000Y-84022250D01*
G75*
G02*
X166692250Y-84266000I-243750J0D01*
G01*
X166204750Y-84266000D01*
G75*
G02*
X165961000Y-84022250I0J243750D01*
G01*
X165961000Y-83109750D01*
G75*
G02*
X166204750Y-82866000I243750J0D01*
G01*
X166692250Y-82866000D01*
G75*
G02*
X166936000Y-83109750I0J-243750D01*
G01*
G37*
G36*
G01*
X168811000Y-83109750D02*
X168811000Y-84022250D01*
G75*
G02*
X168567250Y-84266000I-243750J0D01*
G01*
X168079750Y-84266000D01*
G75*
G02*
X167836000Y-84022250I0J243750D01*
G01*
X167836000Y-83109750D01*
G75*
G02*
X168079750Y-82866000I243750J0D01*
G01*
X168567250Y-82866000D01*
G75*
G02*
X168811000Y-83109750I0J-243750D01*
G01*
G37*
G36*
G01*
X166936000Y-87681750D02*
X166936000Y-88594250D01*
G75*
G02*
X166692250Y-88838000I-243750J0D01*
G01*
X166204750Y-88838000D01*
G75*
G02*
X165961000Y-88594250I0J243750D01*
G01*
X165961000Y-87681750D01*
G75*
G02*
X166204750Y-87438000I243750J0D01*
G01*
X166692250Y-87438000D01*
G75*
G02*
X166936000Y-87681750I0J-243750D01*
G01*
G37*
G36*
G01*
X168811000Y-87681750D02*
X168811000Y-88594250D01*
G75*
G02*
X168567250Y-88838000I-243750J0D01*
G01*
X168079750Y-88838000D01*
G75*
G02*
X167836000Y-88594250I0J243750D01*
G01*
X167836000Y-87681750D01*
G75*
G02*
X168079750Y-87438000I243750J0D01*
G01*
X168567250Y-87438000D01*
G75*
G02*
X168811000Y-87681750I0J-243750D01*
G01*
G37*
D21*
X163576000Y-57940000D03*
X163576000Y-61440000D03*
G36*
G01*
X176243000Y-59240000D02*
X175293000Y-59240000D01*
G75*
G02*
X175043000Y-58990000I0J250000D01*
G01*
X175043000Y-58490000D01*
G75*
G02*
X175293000Y-58240000I250000J0D01*
G01*
X176243000Y-58240000D01*
G75*
G02*
X176493000Y-58490000I0J-250000D01*
G01*
X176493000Y-58990000D01*
G75*
G02*
X176243000Y-59240000I-250000J0D01*
G01*
G37*
G36*
G01*
X176243000Y-61140000D02*
X175293000Y-61140000D01*
G75*
G02*
X175043000Y-60890000I0J250000D01*
G01*
X175043000Y-60390000D01*
G75*
G02*
X175293000Y-60140000I250000J0D01*
G01*
X176243000Y-60140000D01*
G75*
G02*
X176493000Y-60390000I0J-250000D01*
G01*
X176493000Y-60890000D01*
G75*
G02*
X176243000Y-61140000I-250000J0D01*
G01*
G37*
G36*
G01*
X182659000Y-78240000D02*
X183609000Y-78240000D01*
G75*
G02*
X183859000Y-78490000I0J-250000D01*
G01*
X183859000Y-78990000D01*
G75*
G02*
X183609000Y-79240000I-250000J0D01*
G01*
X182659000Y-79240000D01*
G75*
G02*
X182409000Y-78990000I0J250000D01*
G01*
X182409000Y-78490000D01*
G75*
G02*
X182659000Y-78240000I250000J0D01*
G01*
G37*
G36*
G01*
X182659000Y-76340000D02*
X183609000Y-76340000D01*
G75*
G02*
X183859000Y-76590000I0J-250000D01*
G01*
X183859000Y-77090000D01*
G75*
G02*
X183609000Y-77340000I-250000J0D01*
G01*
X182659000Y-77340000D01*
G75*
G02*
X182409000Y-77090000I0J250000D01*
G01*
X182409000Y-76590000D01*
G75*
G02*
X182659000Y-76340000I250000J0D01*
G01*
G37*
G36*
G01*
X180627000Y-78240000D02*
X181577000Y-78240000D01*
G75*
G02*
X181827000Y-78490000I0J-250000D01*
G01*
X181827000Y-78990000D01*
G75*
G02*
X181577000Y-79240000I-250000J0D01*
G01*
X180627000Y-79240000D01*
G75*
G02*
X180377000Y-78990000I0J250000D01*
G01*
X180377000Y-78490000D01*
G75*
G02*
X180627000Y-78240000I250000J0D01*
G01*
G37*
G36*
G01*
X180627000Y-76340000D02*
X181577000Y-76340000D01*
G75*
G02*
X181827000Y-76590000I0J-250000D01*
G01*
X181827000Y-77090000D01*
G75*
G02*
X181577000Y-77340000I-250000J0D01*
G01*
X180627000Y-77340000D01*
G75*
G02*
X180377000Y-77090000I0J250000D01*
G01*
X180377000Y-76590000D01*
G75*
G02*
X180627000Y-76340000I250000J0D01*
G01*
G37*
G36*
G01*
X178595000Y-78240000D02*
X179545000Y-78240000D01*
G75*
G02*
X179795000Y-78490000I0J-250000D01*
G01*
X179795000Y-78990000D01*
G75*
G02*
X179545000Y-79240000I-250000J0D01*
G01*
X178595000Y-79240000D01*
G75*
G02*
X178345000Y-78990000I0J250000D01*
G01*
X178345000Y-78490000D01*
G75*
G02*
X178595000Y-78240000I250000J0D01*
G01*
G37*
G36*
G01*
X178595000Y-76340000D02*
X179545000Y-76340000D01*
G75*
G02*
X179795000Y-76590000I0J-250000D01*
G01*
X179795000Y-77090000D01*
G75*
G02*
X179545000Y-77340000I-250000J0D01*
G01*
X178595000Y-77340000D01*
G75*
G02*
X178345000Y-77090000I0J250000D01*
G01*
X178345000Y-76590000D01*
G75*
G02*
X178595000Y-76340000I250000J0D01*
G01*
G37*
G36*
G01*
X176563000Y-78240000D02*
X177513000Y-78240000D01*
G75*
G02*
X177763000Y-78490000I0J-250000D01*
G01*
X177763000Y-78990000D01*
G75*
G02*
X177513000Y-79240000I-250000J0D01*
G01*
X176563000Y-79240000D01*
G75*
G02*
X176313000Y-78990000I0J250000D01*
G01*
X176313000Y-78490000D01*
G75*
G02*
X176563000Y-78240000I250000J0D01*
G01*
G37*
G36*
G01*
X176563000Y-76340000D02*
X177513000Y-76340000D01*
G75*
G02*
X177763000Y-76590000I0J-250000D01*
G01*
X177763000Y-77090000D01*
G75*
G02*
X177513000Y-77340000I-250000J0D01*
G01*
X176563000Y-77340000D01*
G75*
G02*
X176313000Y-77090000I0J250000D01*
G01*
X176313000Y-76590000D01*
G75*
G02*
X176563000Y-76340000I250000J0D01*
G01*
G37*
G36*
G01*
X161511000Y-60190000D02*
X160561000Y-60190000D01*
G75*
G02*
X160311000Y-59940000I0J250000D01*
G01*
X160311000Y-59440000D01*
G75*
G02*
X160561000Y-59190000I250000J0D01*
G01*
X161511000Y-59190000D01*
G75*
G02*
X161761000Y-59440000I0J-250000D01*
G01*
X161761000Y-59940000D01*
G75*
G02*
X161511000Y-60190000I-250000J0D01*
G01*
G37*
G36*
G01*
X161511000Y-62090000D02*
X160561000Y-62090000D01*
G75*
G02*
X160311000Y-61840000I0J250000D01*
G01*
X160311000Y-61340000D01*
G75*
G02*
X160561000Y-61090000I250000J0D01*
G01*
X161511000Y-61090000D01*
G75*
G02*
X161761000Y-61340000I0J-250000D01*
G01*
X161761000Y-61840000D01*
G75*
G02*
X161511000Y-62090000I-250000J0D01*
G01*
G37*
G36*
G01*
X168115000Y-55938000D02*
X167165000Y-55938000D01*
G75*
G02*
X166915000Y-55688000I0J250000D01*
G01*
X166915000Y-55188000D01*
G75*
G02*
X167165000Y-54938000I250000J0D01*
G01*
X168115000Y-54938000D01*
G75*
G02*
X168365000Y-55188000I0J-250000D01*
G01*
X168365000Y-55688000D01*
G75*
G02*
X168115000Y-55938000I-250000J0D01*
G01*
G37*
G36*
G01*
X168115000Y-57838000D02*
X167165000Y-57838000D01*
G75*
G02*
X166915000Y-57588000I0J250000D01*
G01*
X166915000Y-57088000D01*
G75*
G02*
X167165000Y-56838000I250000J0D01*
G01*
X168115000Y-56838000D01*
G75*
G02*
X168365000Y-57088000I0J-250000D01*
G01*
X168365000Y-57588000D01*
G75*
G02*
X168115000Y-57838000I-250000J0D01*
G01*
G37*
G36*
G01*
X160385999Y-139633000D02*
X161686001Y-139633000D01*
G75*
G02*
X161936000Y-139882999I0J-249999D01*
G01*
X161936000Y-140533001D01*
G75*
G02*
X161686001Y-140783000I-249999J0D01*
G01*
X160385999Y-140783000D01*
G75*
G02*
X160136000Y-140533001I0J249999D01*
G01*
X160136000Y-139882999D01*
G75*
G02*
X160385999Y-139633000I249999J0D01*
G01*
G37*
G36*
G01*
X160385999Y-136683000D02*
X161686001Y-136683000D01*
G75*
G02*
X161936000Y-136932999I0J-249999D01*
G01*
X161936000Y-137583001D01*
G75*
G02*
X161686001Y-137833000I-249999J0D01*
G01*
X160385999Y-137833000D01*
G75*
G02*
X160136000Y-137583001I0J249999D01*
G01*
X160136000Y-136932999D01*
G75*
G02*
X160385999Y-136683000I249999J0D01*
G01*
G37*
D22*
X145947000Y-81787000D03*
X142597000Y-84837000D03*
X145947000Y-84837000D03*
X142597000Y-81787000D03*
D23*
X150572000Y-81032000D03*
X150572000Y-85592000D03*
D24*
X128524000Y-123952000D03*
X128524000Y-122682000D03*
X128524000Y-121412000D03*
X128524000Y-120142000D03*
X128524000Y-113792000D03*
X128524000Y-115062000D03*
X128524000Y-116332000D03*
X128524000Y-117602000D03*
D25*
X112014000Y-108622000D03*
X113284000Y-108622000D03*
X114554000Y-108622000D03*
X115824000Y-108622000D03*
X117094000Y-108622000D03*
X118364000Y-108622000D03*
X119634000Y-108622000D03*
X120904000Y-108622000D03*
X122174000Y-108622000D03*
X123444000Y-108622000D03*
X124714000Y-108622000D03*
X112014000Y-129122000D03*
X113284000Y-129122000D03*
X114554000Y-129122000D03*
X115824000Y-129122000D03*
X117094000Y-129122000D03*
X118364000Y-129122000D03*
X119634000Y-129122000D03*
X120904000Y-129122000D03*
X122174000Y-129122000D03*
X123444000Y-129122000D03*
X124714000Y-129122000D03*
D24*
X128524000Y-118872000D03*
D25*
X125984000Y-108622000D03*
X125984000Y-129122000D03*
G36*
G01*
X153866001Y-113138000D02*
X152965999Y-113138000D01*
G75*
G02*
X152716000Y-112888001I0J249999D01*
G01*
X152716000Y-112362999D01*
G75*
G02*
X152965999Y-112113000I249999J0D01*
G01*
X153866001Y-112113000D01*
G75*
G02*
X154116000Y-112362999I0J-249999D01*
G01*
X154116000Y-112888001D01*
G75*
G02*
X153866001Y-113138000I-249999J0D01*
G01*
G37*
G36*
G01*
X153866001Y-114963000D02*
X152965999Y-114963000D01*
G75*
G02*
X152716000Y-114713001I0J249999D01*
G01*
X152716000Y-114187999D01*
G75*
G02*
X152965999Y-113938000I249999J0D01*
G01*
X153866001Y-113938000D01*
G75*
G02*
X154116000Y-114187999I0J-249999D01*
G01*
X154116000Y-114713001D01*
G75*
G02*
X153866001Y-114963000I-249999J0D01*
G01*
G37*
G36*
G01*
X151834001Y-113138000D02*
X150933999Y-113138000D01*
G75*
G02*
X150684000Y-112888001I0J249999D01*
G01*
X150684000Y-112362999D01*
G75*
G02*
X150933999Y-112113000I249999J0D01*
G01*
X151834001Y-112113000D01*
G75*
G02*
X152084000Y-112362999I0J-249999D01*
G01*
X152084000Y-112888001D01*
G75*
G02*
X151834001Y-113138000I-249999J0D01*
G01*
G37*
G36*
G01*
X151834001Y-114963000D02*
X150933999Y-114963000D01*
G75*
G02*
X150684000Y-114713001I0J249999D01*
G01*
X150684000Y-114187999D01*
G75*
G02*
X150933999Y-113938000I249999J0D01*
G01*
X151834001Y-113938000D01*
G75*
G02*
X152084000Y-114187999I0J-249999D01*
G01*
X152084000Y-114713001D01*
G75*
G02*
X151834001Y-114963000I-249999J0D01*
G01*
G37*
G36*
G01*
X184869500Y-115119999D02*
X184869500Y-116020001D01*
G75*
G02*
X184619501Y-116270000I-249999J0D01*
G01*
X184094499Y-116270000D01*
G75*
G02*
X183844500Y-116020001I0J249999D01*
G01*
X183844500Y-115119999D01*
G75*
G02*
X184094499Y-114870000I249999J0D01*
G01*
X184619501Y-114870000D01*
G75*
G02*
X184869500Y-115119999I0J-249999D01*
G01*
G37*
G36*
G01*
X186694500Y-115119999D02*
X186694500Y-116020001D01*
G75*
G02*
X186444501Y-116270000I-249999J0D01*
G01*
X185919499Y-116270000D01*
G75*
G02*
X185669500Y-116020001I0J249999D01*
G01*
X185669500Y-115119999D01*
G75*
G02*
X185919499Y-114870000I249999J0D01*
G01*
X186444501Y-114870000D01*
G75*
G02*
X186694500Y-115119999I0J-249999D01*
G01*
G37*
G36*
G01*
X185669500Y-118306001D02*
X185669500Y-117405999D01*
G75*
G02*
X185919499Y-117156000I249999J0D01*
G01*
X186444501Y-117156000D01*
G75*
G02*
X186694500Y-117405999I0J-249999D01*
G01*
X186694500Y-118306001D01*
G75*
G02*
X186444501Y-118556000I-249999J0D01*
G01*
X185919499Y-118556000D01*
G75*
G02*
X185669500Y-118306001I0J249999D01*
G01*
G37*
G36*
G01*
X183844500Y-118306001D02*
X183844500Y-117405999D01*
G75*
G02*
X184094499Y-117156000I249999J0D01*
G01*
X184619501Y-117156000D01*
G75*
G02*
X184869500Y-117405999I0J-249999D01*
G01*
X184869500Y-118306001D01*
G75*
G02*
X184619501Y-118556000I-249999J0D01*
G01*
X184094499Y-118556000D01*
G75*
G02*
X183844500Y-118306001I0J249999D01*
G01*
G37*
G36*
G01*
X123755999Y-134615500D02*
X124656001Y-134615500D01*
G75*
G02*
X124906000Y-134865499I0J-249999D01*
G01*
X124906000Y-135390501D01*
G75*
G02*
X124656001Y-135640500I-249999J0D01*
G01*
X123755999Y-135640500D01*
G75*
G02*
X123506000Y-135390501I0J249999D01*
G01*
X123506000Y-134865499D01*
G75*
G02*
X123755999Y-134615500I249999J0D01*
G01*
G37*
G36*
G01*
X123755999Y-132790500D02*
X124656001Y-132790500D01*
G75*
G02*
X124906000Y-133040499I0J-249999D01*
G01*
X124906000Y-133565501D01*
G75*
G02*
X124656001Y-133815500I-249999J0D01*
G01*
X123755999Y-133815500D01*
G75*
G02*
X123506000Y-133565501I0J249999D01*
G01*
X123506000Y-133040499D01*
G75*
G02*
X123755999Y-132790500I249999J0D01*
G01*
G37*
G36*
G01*
X192924000Y-120767001D02*
X192924000Y-119516999D01*
G75*
G02*
X193173999Y-119267000I249999J0D01*
G01*
X193799001Y-119267000D01*
G75*
G02*
X194049000Y-119516999I0J-249999D01*
G01*
X194049000Y-120767001D01*
G75*
G02*
X193799001Y-121017000I-249999J0D01*
G01*
X193173999Y-121017000D01*
G75*
G02*
X192924000Y-120767001I0J249999D01*
G01*
G37*
G36*
G01*
X189999000Y-120767001D02*
X189999000Y-119516999D01*
G75*
G02*
X190248999Y-119267000I249999J0D01*
G01*
X190874001Y-119267000D01*
G75*
G02*
X191124000Y-119516999I0J-249999D01*
G01*
X191124000Y-120767001D01*
G75*
G02*
X190874001Y-121017000I-249999J0D01*
G01*
X190248999Y-121017000D01*
G75*
G02*
X189999000Y-120767001I0J249999D01*
G01*
G37*
G36*
G01*
X181922000Y-130861750D02*
X181922000Y-131774250D01*
G75*
G02*
X181678250Y-132018000I-243750J0D01*
G01*
X181190750Y-132018000D01*
G75*
G02*
X180947000Y-131774250I0J243750D01*
G01*
X180947000Y-130861750D01*
G75*
G02*
X181190750Y-130618000I243750J0D01*
G01*
X181678250Y-130618000D01*
G75*
G02*
X181922000Y-130861750I0J-243750D01*
G01*
G37*
G36*
G01*
X183797000Y-130861750D02*
X183797000Y-131774250D01*
G75*
G02*
X183553250Y-132018000I-243750J0D01*
G01*
X183065750Y-132018000D01*
G75*
G02*
X182822000Y-131774250I0J243750D01*
G01*
X182822000Y-130861750D01*
G75*
G02*
X183065750Y-130618000I243750J0D01*
G01*
X183553250Y-130618000D01*
G75*
G02*
X183797000Y-130861750I0J-243750D01*
G01*
G37*
G36*
G01*
X181922000Y-127305750D02*
X181922000Y-128218250D01*
G75*
G02*
X181678250Y-128462000I-243750J0D01*
G01*
X181190750Y-128462000D01*
G75*
G02*
X180947000Y-128218250I0J243750D01*
G01*
X180947000Y-127305750D01*
G75*
G02*
X181190750Y-127062000I243750J0D01*
G01*
X181678250Y-127062000D01*
G75*
G02*
X181922000Y-127305750I0J-243750D01*
G01*
G37*
G36*
G01*
X183797000Y-127305750D02*
X183797000Y-128218250D01*
G75*
G02*
X183553250Y-128462000I-243750J0D01*
G01*
X183065750Y-128462000D01*
G75*
G02*
X182822000Y-128218250I0J243750D01*
G01*
X182822000Y-127305750D01*
G75*
G02*
X183065750Y-127062000I243750J0D01*
G01*
X183553250Y-127062000D01*
G75*
G02*
X183797000Y-127305750I0J-243750D01*
G01*
G37*
G36*
G01*
X181922000Y-123749750D02*
X181922000Y-124662250D01*
G75*
G02*
X181678250Y-124906000I-243750J0D01*
G01*
X181190750Y-124906000D01*
G75*
G02*
X180947000Y-124662250I0J243750D01*
G01*
X180947000Y-123749750D01*
G75*
G02*
X181190750Y-123506000I243750J0D01*
G01*
X181678250Y-123506000D01*
G75*
G02*
X181922000Y-123749750I0J-243750D01*
G01*
G37*
G36*
G01*
X183797000Y-123749750D02*
X183797000Y-124662250D01*
G75*
G02*
X183553250Y-124906000I-243750J0D01*
G01*
X183065750Y-124906000D01*
G75*
G02*
X182822000Y-124662250I0J243750D01*
G01*
X182822000Y-123749750D01*
G75*
G02*
X183065750Y-123506000I243750J0D01*
G01*
X183553250Y-123506000D01*
G75*
G02*
X183797000Y-123749750I0J-243750D01*
G01*
G37*
G36*
G01*
X121463750Y-134640500D02*
X122376250Y-134640500D01*
G75*
G02*
X122620000Y-134884250I0J-243750D01*
G01*
X122620000Y-135371750D01*
G75*
G02*
X122376250Y-135615500I-243750J0D01*
G01*
X121463750Y-135615500D01*
G75*
G02*
X121220000Y-135371750I0J243750D01*
G01*
X121220000Y-134884250D01*
G75*
G02*
X121463750Y-134640500I243750J0D01*
G01*
G37*
G36*
G01*
X121463750Y-132765500D02*
X122376250Y-132765500D01*
G75*
G02*
X122620000Y-133009250I0J-243750D01*
G01*
X122620000Y-133496750D01*
G75*
G02*
X122376250Y-133740500I-243750J0D01*
G01*
X121463750Y-133740500D01*
G75*
G02*
X121220000Y-133496750I0J243750D01*
G01*
X121220000Y-133009250D01*
G75*
G02*
X121463750Y-132765500I243750J0D01*
G01*
G37*
G36*
G01*
X176472000Y-131774250D02*
X176472000Y-130861750D01*
G75*
G02*
X176715750Y-130618000I243750J0D01*
G01*
X177203250Y-130618000D01*
G75*
G02*
X177447000Y-130861750I0J-243750D01*
G01*
X177447000Y-131774250D01*
G75*
G02*
X177203250Y-132018000I-243750J0D01*
G01*
X176715750Y-132018000D01*
G75*
G02*
X176472000Y-131774250I0J243750D01*
G01*
G37*
G36*
G01*
X174597000Y-131774250D02*
X174597000Y-130861750D01*
G75*
G02*
X174840750Y-130618000I243750J0D01*
G01*
X175328250Y-130618000D01*
G75*
G02*
X175572000Y-130861750I0J-243750D01*
G01*
X175572000Y-131774250D01*
G75*
G02*
X175328250Y-132018000I-243750J0D01*
G01*
X174840750Y-132018000D01*
G75*
G02*
X174597000Y-131774250I0J243750D01*
G01*
G37*
G36*
G01*
X176472000Y-128218250D02*
X176472000Y-127305750D01*
G75*
G02*
X176715750Y-127062000I243750J0D01*
G01*
X177203250Y-127062000D01*
G75*
G02*
X177447000Y-127305750I0J-243750D01*
G01*
X177447000Y-128218250D01*
G75*
G02*
X177203250Y-128462000I-243750J0D01*
G01*
X176715750Y-128462000D01*
G75*
G02*
X176472000Y-128218250I0J243750D01*
G01*
G37*
G36*
G01*
X174597000Y-128218250D02*
X174597000Y-127305750D01*
G75*
G02*
X174840750Y-127062000I243750J0D01*
G01*
X175328250Y-127062000D01*
G75*
G02*
X175572000Y-127305750I0J-243750D01*
G01*
X175572000Y-128218250D01*
G75*
G02*
X175328250Y-128462000I-243750J0D01*
G01*
X174840750Y-128462000D01*
G75*
G02*
X174597000Y-128218250I0J243750D01*
G01*
G37*
G36*
G01*
X176472000Y-124662250D02*
X176472000Y-123749750D01*
G75*
G02*
X176715750Y-123506000I243750J0D01*
G01*
X177203250Y-123506000D01*
G75*
G02*
X177447000Y-123749750I0J-243750D01*
G01*
X177447000Y-124662250D01*
G75*
G02*
X177203250Y-124906000I-243750J0D01*
G01*
X176715750Y-124906000D01*
G75*
G02*
X176472000Y-124662250I0J243750D01*
G01*
G37*
G36*
G01*
X174597000Y-124662250D02*
X174597000Y-123749750D01*
G75*
G02*
X174840750Y-123506000I243750J0D01*
G01*
X175328250Y-123506000D01*
G75*
G02*
X175572000Y-123749750I0J-243750D01*
G01*
X175572000Y-124662250D01*
G75*
G02*
X175328250Y-124906000I-243750J0D01*
G01*
X174840750Y-124906000D01*
G75*
G02*
X174597000Y-124662250I0J243750D01*
G01*
G37*
G36*
G01*
X109212000Y-133637000D02*
X109212000Y-134587000D01*
G75*
G02*
X108962000Y-134837000I-250000J0D01*
G01*
X108462000Y-134837000D01*
G75*
G02*
X108212000Y-134587000I0J250000D01*
G01*
X108212000Y-133637000D01*
G75*
G02*
X108462000Y-133387000I250000J0D01*
G01*
X108962000Y-133387000D01*
G75*
G02*
X109212000Y-133637000I0J-250000D01*
G01*
G37*
G36*
G01*
X111112000Y-133637000D02*
X111112000Y-134587000D01*
G75*
G02*
X110862000Y-134837000I-250000J0D01*
G01*
X110362000Y-134837000D01*
G75*
G02*
X110112000Y-134587000I0J250000D01*
G01*
X110112000Y-133637000D01*
G75*
G02*
X110362000Y-133387000I250000J0D01*
G01*
X110862000Y-133387000D01*
G75*
G02*
X111112000Y-133637000I0J-250000D01*
G01*
G37*
G36*
G01*
X109212000Y-135923000D02*
X109212000Y-136873000D01*
G75*
G02*
X108962000Y-137123000I-250000J0D01*
G01*
X108462000Y-137123000D01*
G75*
G02*
X108212000Y-136873000I0J250000D01*
G01*
X108212000Y-135923000D01*
G75*
G02*
X108462000Y-135673000I250000J0D01*
G01*
X108962000Y-135673000D01*
G75*
G02*
X109212000Y-135923000I0J-250000D01*
G01*
G37*
G36*
G01*
X111112000Y-135923000D02*
X111112000Y-136873000D01*
G75*
G02*
X110862000Y-137123000I-250000J0D01*
G01*
X110362000Y-137123000D01*
G75*
G02*
X110112000Y-136873000I0J250000D01*
G01*
X110112000Y-135923000D01*
G75*
G02*
X110362000Y-135673000I250000J0D01*
G01*
X110862000Y-135673000D01*
G75*
G02*
X111112000Y-135923000I0J-250000D01*
G01*
G37*
G36*
G01*
X157767000Y-139708000D02*
X158717000Y-139708000D01*
G75*
G02*
X158967000Y-139958000I0J-250000D01*
G01*
X158967000Y-140458000D01*
G75*
G02*
X158717000Y-140708000I-250000J0D01*
G01*
X157767000Y-140708000D01*
G75*
G02*
X157517000Y-140458000I0J250000D01*
G01*
X157517000Y-139958000D01*
G75*
G02*
X157767000Y-139708000I250000J0D01*
G01*
G37*
G36*
G01*
X157767000Y-137808000D02*
X158717000Y-137808000D01*
G75*
G02*
X158967000Y-138058000I0J-250000D01*
G01*
X158967000Y-138558000D01*
G75*
G02*
X158717000Y-138808000I-250000J0D01*
G01*
X157767000Y-138808000D01*
G75*
G02*
X157517000Y-138558000I0J250000D01*
G01*
X157517000Y-138058000D01*
G75*
G02*
X157767000Y-137808000I250000J0D01*
G01*
G37*
M02*
