M48
; DRILL file {KiCad 5.1.10-88a1d61d58~90~ubuntu20.04.1} date Tue Oct 12 23:08:11 2021
; FORMAT={-:-/ absolute / metric / decimal}
; #@! TF.CreationDate,2021-10-12T23:08:11+03:00
; #@! TF.GenerationSoftware,Kicad,Pcbnew,5.1.10-88a1d61d58~90~ubuntu20.04.1
; #@! TF.FileFunction,Plated,1,2,PTH
FMAT,2
METRIC
T1C0.400
T2C0.600
T3C0.650
T4C0.800
T5C0.850
T6C1.000
T7C1.090
T8C1.400
T9C1.500
T10C2.120
T11C3.000
T12C4.000
%
G90
G05
T1
X110.0Y-103.378
X111.506Y-138.176
X112.014Y-128.524
X112.522Y-136.398
X113.284Y-110.236
X113.284Y-128.524
X113.538Y-134.112
X114.554Y-127.254
X115.0Y-103.378
X115.824Y-131.826
X120.142Y-137.922
X121.412Y-137.898
X121.92Y-133.253
X123.507Y-124.714
X123.524Y-117.094
X125.222Y-120.904
X126.624Y-119.888
X126.746Y-113.792
X126.746Y-122.682
X126.746Y-123.952
X134.366Y-140.716
X135.128Y-140.716
X138.43Y-114.808
X138.43Y-127.254
X138.43Y-128.778
X138.43Y-130.302
X138.43Y-131.826
X138.43Y-133.35
X138.43Y-134.874
X138.43Y-139.446
X139.065Y-115.443
X140.335Y-63.5
X140.335Y-65.405
X140.335Y-67.31
X140.335Y-69.215
X140.335Y-71.12
X141.007Y-125.693
X141.732Y-124.206
X142.24Y-63.5
X142.24Y-65.405
X142.24Y-67.31
X142.24Y-69.215
X142.24Y-71.12
X142.748Y-121.158
X143.002Y-126.238
X143.51Y-119.634
X143.764Y-121.158
X144.018Y-125.476
X144.145Y-63.5
X144.145Y-65.405
X144.145Y-67.31
X144.145Y-69.215
X144.145Y-71.12
X144.785Y-121.163
X146.05Y-63.5
X146.05Y-65.405
X146.05Y-67.31
X146.05Y-69.215
X146.05Y-71.12
X146.304Y-109.474
X146.304Y-131.445
X146.304Y-132.715
X146.304Y-133.985
X147.054Y-117.557
X147.066Y-121.412
X147.574Y-108.204
X147.574Y-109.474
X147.574Y-131.445
X147.574Y-132.715
X147.574Y-133.985
X148.59Y-113.538
X148.844Y-131.445
X148.844Y-132.715
X148.844Y-133.985
X150.054Y-117.557
X150.114Y-85.598
X150.368Y-120.142
X151.13Y-85.598
X151.384Y-67.564
X151.384Y-112.625
X151.638Y-120.142
X152.775Y-69.264
X152.775Y-70.964
X152.908Y-67.564
X152.908Y-120.142
X152.955Y-137.922
X152.955Y-139.954
X153.096Y-133.858
X153.096Y-135.89
X153.826Y-70.964
X154.002Y-69.264
X154.432Y-67.564
X155.78Y-69.264
X155.78Y-70.866
X156.464Y-59.69
X156.591Y-68.453
X157.48Y-67.564
X158.242Y-140.208
X161.036Y-59.69
X161.036Y-71.374
X161.036Y-72.286
X161.036Y-73.152
X161.036Y-140.208
X162.404Y-130.085
X163.576Y-57.912
X163.83Y-129.794
X165.862Y-108.712
X167.386Y-68.834
X167.894Y-73.406
X167.894Y-76.708
X167.894Y-80.01
X167.894Y-135.128
X168.148Y-129.032
X168.656Y-120.396
X168.671Y-138.686
X168.91Y-129.794
X169.164Y-135.128
X169.418Y-71.374
X169.926Y-120.396
X170.434Y-68.834
X170.434Y-124.206
X171.45Y-147.32
X171.704Y-124.206
X172.212Y-76.708
X172.259Y-73.406
X172.72Y-106.172
X172.72Y-109.601
X172.974Y-124.206
X173.736Y-106.172
X173.736Y-109.601
X173.99Y-69.596
X174.244Y-139.446
X174.498Y-84.074
X174.498Y-88.138
X175.006Y-131.318
X175.514Y-92.964
X176.934Y-122.174
X176.934Y-125.73
X176.934Y-129.286
X177.038Y-111.379
X177.8Y-104.648
X177.8Y-106.172
X177.8Y-108.585
X178.054Y-58.881
X178.054Y-60.706
X178.054Y-86.106
X178.07Y-91.71
X179.07Y-76.708
X179.07Y-78.74
X179.83Y-69.262
X179.83Y-70.532
X179.83Y-71.802
X180.34Y-58.881
X180.34Y-60.706
X180.594Y-95.25
X181.356Y-88.646
X181.356Y-122.174
X181.356Y-125.73
X181.356Y-129.286
X181.61Y-61.976
X182.833Y-100.838
X182.833Y-105.918
X182.88Y-60.602
X182.88Y-90.678
X182.88Y-95.758
X183.134Y-76.84
X183.134Y-78.74
X183.134Y-131.572
X183.388Y-113.538
X184.404Y-113.538
X184.404Y-115.57
X185.166Y-78.74
X185.325Y-130.651
X185.42Y-60.706
X186.087Y-128.111
X186.112Y-65.822
X186.112Y-66.732
X187.039Y-125.571
X187.198Y-66.802
X187.198Y-76.962
X187.198Y-78.74
X187.212Y-65.822
X188.722Y-121.412
X189.23Y-78.74
X191.262Y-120.142
X193.162Y-120.142
T2
X177.546Y-50.546
T3
X142.178Y-99.664
X142.178Y-100.934
X143.448Y-99.664
X143.448Y-100.934
X144.718Y-99.664
X144.718Y-100.934
X145.988Y-99.664
X145.988Y-100.934
X147.258Y-99.664
X147.258Y-100.934
X148.528Y-99.664
X148.528Y-100.934
T4
X113.284Y-73.66
X114.684Y-66.16
X156.972Y-78.74
X156.972Y-86.36
X159.472Y-78.74
X159.472Y-86.36
T5
X112.888Y-53.32
X114.688Y-58.42
T6
X109.728Y-139.7
X109.728Y-142.24
X109.728Y-144.78
X115.824Y-134.62
X115.824Y-137.16
X115.824Y-139.7
X115.824Y-142.24
X115.824Y-144.78
X118.364Y-134.62
X118.364Y-137.16
X118.364Y-139.7
X118.364Y-142.24
X118.364Y-144.78
X157.0Y-99.06
X157.0Y-106.66
X173.736Y-143.764
X173.736Y-146.304
X176.276Y-143.764
X176.276Y-146.304
X178.816Y-136.144
X178.816Y-138.684
X178.816Y-143.764
X178.816Y-146.304
X181.356Y-136.144
X181.356Y-138.684
X181.356Y-143.764
X181.356Y-146.304
X183.896Y-136.144
X183.896Y-138.684
X183.896Y-143.764
X183.896Y-146.304
X187.932Y-90.678
X187.932Y-95.758
X187.932Y-100.838
X187.932Y-105.918
X187.932Y-110.998
X190.472Y-90.678
X190.472Y-95.758
X190.472Y-100.838
X190.472Y-105.918
X190.472Y-110.998
X190.754Y-116.332
X190.754Y-124.206
X190.754Y-126.746
X190.754Y-129.286
X190.754Y-131.826
X193.012Y-90.678
X193.012Y-95.758
X193.012Y-100.838
X193.012Y-105.918
X193.012Y-110.998
X193.294Y-116.332
X193.294Y-124.206
X193.294Y-126.746
X193.294Y-129.286
X193.294Y-131.826
T7
X169.124Y-102.86
T8
X105.918Y-67.564
X105.918Y-72.564
T9
X122.688Y-52.264
X122.688Y-73.064
X167.688Y-52.264
X167.688Y-60.264
T10
X172.974Y-113.03
T11
X125.588Y-98.364
X125.588Y-138.364
X165.588Y-98.364
X165.588Y-138.364
T12
X102.688Y-55.064
X102.688Y-141.064
X188.688Y-55.064
X188.688Y-141.064
T0
M30
